<?xml version="1.0" standalone="no"?>
<!DOCTYPE svg PUBLIC "-//W3C//DTD SVG 20010904//EN"
 "http://www.w3.org/TR/2001/REC-SVG-20010904/DTD/svg10.dtd">
<svg version="1.0" xmlns="http://www.w3.org/2000/svg"
 width="969.000000pt" height="1200.000000pt" viewBox="0 0 969.000000 1200.000000"
 preserveAspectRatio="xMidYMid meet">
<metadata>
Created by potrace 1.16, written by Peter Selinger 2001-2019
</metadata>
<g transform="translate(0.000000,1200.000000) scale(0.100000,-0.100000)"
fill="#000000" stroke="none">
<path d="M1049 11952 c-32 -4 -78 -51 -113 -116 -31 -56 -31 -98 -1 -102 65
-10 87 -19 97 -37 8 -15 9 -192 6 -625 l-5 -603 24 -16 c22 -15 341 -16 3712
-9 3279 6 3689 5 3700 -8 7 -8 10 -24 6 -36 l-6 -20 -3677 0 c-2022 0 -3693
-3 -3713 -6 l-36 -6 -7 -347 c-4 -190 -8 -357 -9 -371 -3 -35 52 -60 145 -67
100 -8 735 -7 1188 2 371 8 375 8 415 -13 26 -14 43 -18 49 -12 6 6 28 10 51
10 23 0 46 5 51 10 11 11 51 13 224 11 52 -1 150 1 218 4 l122 6 34 -37 c27
-30 34 -33 39 -19 4 9 12 13 18 10 6 -4 8 -13 5 -21 -8 -22 9 -25 27 -4 16 19
18 19 52 3 29 -14 38 -15 59 -4 27 15 207 9 263 -8 18 -5 74 -7 125 -4 51 3
129 0 173 -7 44 -6 113 -12 154 -13 74 -2 74 -2 92 -37 10 -19 19 -48 21 -65
3 -29 2 -30 -44 -33 -33 -2 -48 -7 -48 -17 0 -8 -8 -19 -18 -24 -10 -6 -29
-25 -42 -45 -13 -19 -36 -41 -52 -50 -16 -10 -25 -22 -22 -31 8 -20 -46 -46
-69 -34 -14 8 -22 -1 -52 -65 -19 -41 -35 -81 -35 -88 0 -8 -7 -24 -17 -37
l-16 -24 -14 28 c-14 25 -16 26 -32 11 -19 -17 -32 -88 -36 -203 -1 -35 -8
-70 -15 -78 -9 -10 -9 -23 -1 -47 6 -18 17 -71 25 -118 8 -47 24 -110 34 -141
29 -83 36 -133 20 -159 -11 -18 -11 -22 2 -30 39 -23 54 -40 55 -62 1 -14 11
-38 23 -55 13 -18 19 -38 15 -51 -3 -12 0 -29 7 -37 17 -21 2 -38 -29 -32 -14
3 -34 1 -44 -5 -18 -9 -82 6 -145 35 -21 10 -21 12 -5 21 10 5 22 15 26 23 4
7 22 13 39 13 26 0 29 2 18 15 -7 8 -10 22 -6 30 4 11 -2 15 -25 15 -22 0 -32
-6 -39 -25 -6 -15 -17 -25 -29 -25 -21 0 -33 -22 -25 -45 4 -10 0 -15 -14 -15
-39 0 -52 -11 -52 -46 0 -23 6 -37 20 -44 11 -6 20 -15 20 -20 0 -6 -9 -10
-20 -10 -11 0 -20 -4 -20 -9 0 -14 25 -20 69 -16 23 3 56 -2 78 -12 21 -8 56
-17 77 -19 22 -2 44 -8 50 -14 5 -5 20 -10 32 -10 12 0 37 -6 55 -14 19 -8 60
-17 91 -21 56 -7 82 -4 240 34 46 11 80 15 86 9 5 -5 14 -3 22 7 16 19 65 19
120 0 23 -8 62 -15 86 -15 23 0 46 -4 49 -10 8 -13 260 -13 285 0 11 6 46 13
80 17 46 4 63 11 71 26 13 24 -1 36 -35 30 -13 -3 -27 0 -30 6 -8 13 56 41 93
41 47 0 68 43 36 70 -12 10 -19 10 -27 2 -14 -14 -94 -16 -102 -3 -5 7 -64 21
-152 35 -23 4 -37 0 -49 -14 -22 -24 -63 -26 -72 -4 -4 11 4 26 24 43 17 14
36 36 42 49 7 12 18 22 26 22 14 0 85 80 85 95 0 5 6 16 14 24 26 29 66 119
66 149 0 18 8 35 20 43 18 13 36 63 54 150 4 17 14 29 28 32 30 8 45 -8 27
-29 -11 -13 -11 -18 -1 -21 6 -3 12 -11 12 -18 0 -7 6 -15 13 -18 9 -3 16 -30
20 -72 4 -37 13 -81 22 -97 8 -17 15 -42 15 -55 0 -13 11 -46 25 -73 14 -27
25 -54 25 -59 0 -5 12 -28 27 -50 21 -32 33 -41 55 -41 25 0 32 8 58 63 36 78
37 84 5 63 -20 -13 -28 -14 -45 -4 -15 10 -22 10 -32 0 -6 -6 -17 -12 -23 -12
-14 0 -35 57 -28 76 3 8 -4 43 -16 77 -29 88 -36 166 -15 174 15 6 44 -20 70
-63 9 -16 13 -16 30 -3 14 10 19 26 19 59 0 41 -2 45 -24 45 -32 0 -38 -21 -9
-28 19 -5 20 -9 10 -19 -11 -11 -16 -10 -26 5 -7 9 -16 17 -19 17 -3 0 -18 11
-33 25 -14 13 -30 22 -35 20 -16 -11 -21 19 -5 31 20 14 14 54 -9 54 -17 0
-25 22 -26 73 0 23 -6 73 -13 111 -13 75 -35 101 -91 108 -24 2 -31 8 -33 30
-3 25 0 27 40 32 35 5 240 3 286 -3 6 0 12 -14 12 -31 0 -23 -6 -33 -25 -40
-37 -14 -39 -31 -16 -98 12 -32 21 -72 21 -90 0 -17 5 -34 10 -37 6 -3 10 -37
10 -74 0 -37 4 -71 9 -76 5 -6 11 -26 13 -45 2 -19 6 -28 9 -20 80 217 87 248
53 219 -11 -9 -15 -7 -21 7 -3 11 -15 31 -25 46 -10 14 -18 31 -18 36 0 14 50
25 64 13 24 -20 54 0 81 55 14 29 30 56 36 59 5 4 9 19 9 35 0 24 5 31 28 36
15 3 35 8 45 11 23 6 47 -14 47 -39 0 -11 6 -32 14 -46 7 -15 18 -48 24 -74 7
-25 23 -71 37 -101 14 -31 25 -62 25 -69 1 -7 7 -30 14 -51 17 -47 10 -77 -17
-77 -11 0 -28 -7 -38 -16 -16 -15 -20 -15 -41 0 -12 9 -31 16 -41 16 -20 0
-40 39 -61 123 -20 78 -38 73 -70 -20 -18 -49 -39 -89 -58 -107 -24 -23 -29
-35 -24 -57 4 -21 -3 -45 -24 -86 -17 -32 -28 -65 -25 -74 4 -10 -4 -24 -19
-35 -13 -11 -27 -29 -30 -40 -5 -18 -1 -23 20 -28 22 -6 32 -2 50 21 13 15 30
42 38 59 26 53 42 61 84 39 20 -11 44 -27 52 -36 22 -26 123 -109 131 -109 10
0 0 80 -13 107 -6 12 -8 33 -6 48 3 14 1 28 -3 31 -12 7 -49 89 -49 108 0 9 7
16 15 16 8 0 15 -4 15 -9 0 -5 9 -11 20 -14 20 -5 26 -31 22 -94 0 -14 5 -23
14 -23 13 0 19 -22 16 -60 -1 -18 34 -43 48 -35 17 11 11 32 -11 38 -18 5 -20
8 -8 19 8 8 22 17 32 21 21 8 22 26 1 34 -8 3 -13 12 -9 21 3 8 3 30 -1 48 -4
24 -12 34 -25 34 -26 0 -24 15 6 34 28 18 39 21 30 6 -7 -12 28 -95 45 -105 7
-4 8 14 5 57 -3 35 -1 82 4 104 5 21 19 80 31 129 12 50 30 108 41 130 10 22
19 48 19 57 0 19 -40 34 -64 25 -10 -4 -15 4 -18 29 -5 47 10 54 116 54 51 0
86 4 86 10 0 6 -22 10 -49 10 -85 0 -132 29 -116 71 9 24 -47 38 -133 32 -54
-4 -81 -2 -86 6 -5 8 15 11 70 11 67 0 75 2 64 15 -20 24 -112 20 -136 -6 -15
-17 -27 -20 -61 -16 -26 3 -43 0 -43 -6 0 -6 -47 -8 -138 -5 -135 6 -172 0
-172 -25 0 -7 -13 -24 -29 -40 -38 -35 -92 -38 -106 -5 -6 13 -19 27 -30 33
-11 6 -32 18 -47 29 -21 14 -37 16 -68 11 -30 -5 -40 -3 -40 7 -1 7 -8 1 -16
-14 -17 -32 -20 -34 -28 -12 -4 10 -2 13 7 8 8 -5 8 -3 -1 7 -11 12 -16 11
-30 -9 -10 -13 -21 -20 -25 -16 -4 4 2 13 13 21 12 9 20 26 20 43 l0 29 -42
-15 c-43 -15 -57 -9 -58 24 0 6 -12 12 -26 12 -16 0 -36 11 -50 25 -13 14 -32
25 -43 25 -27 0 -74 19 -83 33 -4 7 -8 24 -8 39 0 20 -7 28 -31 37 -45 15 -49
14 -49 -14 0 -22 3 -25 25 -19 18 4 27 1 31 -11 7 -17 -10 -35 -33 -35 -20 0
-73 51 -73 71 0 25 -16 24 -23 -1 -4 -15 -14 -20 -41 -20 -20 0 -45 -6 -56
-12 -16 -10 -22 -10 -34 2 -16 16 -24 88 -13 107 6 9 57 14 147 13 14 0 48 1
75 1 68 2 71 2 305 -3 113 -3 232 -1 265 4 33 4 70 8 82 8 12 0 25 5 28 11 5
7 14 4 26 -7 10 -9 25 -14 35 -10 9 3 86 6 172 7 90 0 163 4 175 11 11 5 77
14 146 19 171 13 164 12 266 5 194 -14 1018 -9 1220 8 44 4 172 2 285 -4 113
-6 284 -13 380 -16 170 -4 176 -5 198 -29 l22 -25 1 -522 c0 -722 -4 -771 -60
-806 -14 -9 -28 -18 -31 -20 -2 -1 2 -7 9 -12 20 -12 5 -43 -16 -36 -22 7 -43
-33 -43 -80 0 -61 -62 -76 -68 -16 -4 37 12 62 38 62 18 0 30 19 30 46 0 22
-54 17 -75 -6 -10 -12 -25 -18 -32 -15 -27 10 -63 -25 -63 -60 0 -31 -33 -75
-46 -62 -3 3 -8 39 -10 79 -6 120 -17 172 -37 176 -12 3 -21 -6 -28 -27 -11
-32 -33 -41 -42 -18 -4 9 -8 8 -16 -3 -9 -13 -14 -13 -32 -2 -20 13 -21 12
-14 -20 4 -18 20 -54 36 -79 35 -55 35 -59 6 -59 -28 0 -67 39 -67 67 0 11 -9
30 -20 43 -11 13 -20 27 -20 32 0 4 -8 8 -19 8 -10 0 -24 7 -31 15 -10 12 -9
16 4 21 23 9 20 21 -10 49 -14 13 -35 41 -46 62 -12 21 -29 44 -38 50 -10 7
-21 31 -25 53 -4 24 -14 44 -26 50 -10 6 -19 17 -19 25 0 19 -40 65 -57 65
-24 0 -14 18 14 25 22 5 31 2 45 -17 10 -13 25 -30 33 -39 8 -9 15 -21 15 -27
0 -16 34 -32 48 -23 6 3 11 15 10 26 0 11 8 47 17 80 18 61 26 193 13 202 -5
2 -8 -4 -8 -14 0 -10 -28 -39 -67 -68 -36 -27 -78 -62 -92 -77 -14 -16 -34
-28 -44 -28 -13 0 -17 -5 -14 -14 9 -22 -61 -8 -85 16 -16 16 -28 18 -56 13
-45 -8 -52 -12 -52 -31 0 -21 -18 -17 -30 6 -17 33 -62 26 -99 -15 l-32 -36
11 -72 c6 -39 13 -73 15 -75 7 -7 28 49 31 83 6 55 16 95 24 95 16 0 32 -31
27 -50 -4 -14 0 -20 12 -20 23 0 56 -36 42 -45 -6 -3 -14 1 -17 9 -3 9 -15 16
-26 16 -18 0 -20 -5 -15 -39 2 -22 0 -44 -6 -50 -7 -7 -6 -15 2 -25 7 -8 10
-19 7 -25 -3 -5 -3 -23 0 -39 6 -27 10 -30 33 -26 18 4 32 0 40 -10 18 -22 5
-36 -33 -36 -25 0 -35 5 -39 20 -7 25 -33 25 -74 0 -44 -26 -57 -54 -49 -108
9 -70 14 -72 140 -72 137 0 151 9 161 107 l7 61 -43 13 c-44 13 -99 61 -99 86
0 18 17 17 24 -2 3 -8 10 -15 15 -15 7 0 10 45 8 122 -1 89 1 122 11 126 7 2
12 -5 11 -20 -3 -80 24 -228 41 -228 17 0 40 -32 40 -56 0 -13 5 -24 10 -24 6
0 10 -6 10 -12 0 -26 92 -148 116 -154 13 -3 24 -10 24 -15 0 -17 115 -130
158 -155 50 -30 54 -55 20 -130 -12 -27 -25 -69 -29 -94 -4 -25 -19 -76 -33
-114 -17 -45 -26 -90 -27 -130 -1 -82 -9 -101 -45 -101 -21 0 -30 -6 -32 -20
-2 -11 -10 -27 -17 -35 -7 -9 -15 -56 -18 -112 -6 -104 0 -90 -93 -218 -12
-16 -55 -57 -95 -90 -41 -33 -86 -71 -101 -85 -15 -14 -31 -25 -37 -25 -19 0
-41 -32 -41 -61 0 -26 -5 -30 -45 -41 -36 -10 -47 -18 -51 -38 -22 -96 -54
-148 -107 -175 -15 -7 -23 -21 -25 -43 -4 -36 -62 -89 -94 -84 -25 4 -36 -31
-40 -127 l-3 -81 -33 -6 c-18 -4 -56 -3 -85 0 -50 7 -55 5 -110 -34 -40 -28
-68 -40 -92 -40 -19 0 -37 -4 -40 -10 -3 -5 -15 -10 -26 -10 -10 0 -19 -7 -19
-16 0 -8 -25 -51 -55 -94 -30 -43 -55 -84 -55 -90 0 -23 -35 -70 -52 -70 -10
0 -20 -10 -24 -25 -3 -14 -12 -25 -20 -25 -17 0 -19 49 -4 100 6 22 6 38 0 44
-6 6 -10 27 -10 47 0 34 -3 37 -32 42 -26 4 -37 0 -53 -19 -27 -32 -33 -30
-51 11 -18 43 -33 44 -59 5 -11 -16 -27 -30 -35 -30 -22 0 -50 -56 -50 -98 0
-66 9 -82 43 -82 17 0 38 -6 46 -13 17 -15 73 -33 136 -45 39 -8 40 -9 52 -66
8 -40 18 -63 34 -74 13 -10 26 -19 29 -22 4 -3 21 -26 38 -52 30 -43 78 -78
108 -78 23 0 74 -35 74 -51 0 -15 -39 -49 -56 -49 -4 0 -4 14 0 31 5 28 4 30
-17 22 -38 -14 -100 -8 -149 15 -27 13 -48 27 -48 32 0 6 -4 10 -9 10 -18 0
-75 66 -87 100 -13 38 -49 54 -60 26 -8 -20 -38 -21 -54 -1 -18 21 -40 19 -40
-5 0 -24 -15 -27 -24 -4 -12 31 -5 68 17 92 l22 24 -29 -8 c-16 -4 -42 -21
-58 -38 -97 -108 -94 -106 -137 -106 -38 0 -40 1 -32 23 5 14 5 30 -1 40 -6
12 -5 29 3 52 14 37 6 56 -13 37 -13 -13 -48 -17 -48 -6 0 4 16 31 35 60 19
29 35 57 35 63 0 5 -17 11 -37 13 -30 2 -38 7 -38 23 0 25 68 41 104 25 32
-15 39 -4 14 22 -17 17 -35 21 -94 23 -64 2 -75 5 -88 25 -9 13 -33 40 -53 60
-21 20 -38 41 -38 47 0 25 67 55 130 58 26 1 40 15 40 40 0 30 -37 42 -85 28
-40 -13 -65 -1 -65 31 0 13 -5 37 -11 54 -13 38 0 66 41 87 37 19 110 19 136
0 50 -38 58 1 16 85 -27 54 -62 83 -89 73 -9 -3 -11 -13 -7 -26 5 -17 3 -19
-17 -14 -39 10 -123 -36 -158 -86 -34 -50 -53 -137 -45 -201 5 -32 2 -50 -11
-70 -12 -17 -15 -35 -10 -53 7 -30 72 -123 85 -123 9 0 40 -125 40 -162 0 -13
-16 -55 -36 -95 -36 -70 -36 -72 -20 -104 21 -42 21 -99 1 -99 -8 0 -15 -5
-15 -11 0 -7 7 -8 18 -4 31 12 36 10 40 -13 2 -14 -3 -24 -13 -28 -9 -4 -21
-18 -26 -31 -5 -13 -13 -22 -18 -18 -17 10 -22 -15 -10 -49 11 -30 10 -38 -10
-72 -14 -24 -20 -46 -16 -61 6 -25 -12 -32 -33 -11 -21 21 -26 0 -28 -118 -2
-63 -8 -131 -14 -150 -7 -20 -10 -68 -9 -107 4 -71 4 -72 -21 -72 -23 0 -25 4
-27 45 -4 79 -25 184 -44 221 -12 25 -16 48 -12 77 5 41 4 42 -31 57 -20 8
-36 22 -36 30 0 8 -9 15 -20 15 -15 0 -20 -7 -20 -29 0 -16 5 -31 12 -33 13
-5 3 -58 -11 -58 -5 0 -12 15 -15 34 -4 19 -13 39 -21 46 -8 7 -15 18 -15 26
0 17 -57 15 -72 -4 -10 -11 -9 -20 5 -44 24 -41 21 -68 -12 -140 -16 -35 -32
-83 -36 -108 -7 -47 -29 -80 -52 -80 -7 0 -13 -5 -13 -12 0 -6 -2 -9 -5 -7 -2
3 1 19 7 36 10 27 9 33 -11 54 -15 16 -20 31 -16 46 7 30 -14 208 -31 261 -8
23 -14 63 -14 88 0 35 -5 50 -25 69 -19 16 -33 50 -51 117 -14 51 -29 97 -34
102 -20 20 -24 -7 -12 -87 7 -46 12 -92 12 -102 0 -53 -61 70 -89 180 l-7 30
-7 -25 c-8 -27 -77 -78 -77 -57 0 7 -11 34 -25 61 -14 27 -25 54 -25 61 0 6
-13 18 -29 28 -43 25 -84 118 -83 187 4 131 1 184 -8 195 -7 9 -6 21 5 41 8
16 15 34 15 41 0 6 12 20 27 31 20 15 24 24 18 38 -5 10 -16 41 -24 67 -17 51
-33 62 -41 28 -5 -20 -6 -20 -35 7 -38 34 -119 77 -165 87 -35 7 -166 82 -205
116 -33 29 -86 47 -148 50 -70 3 -82 -6 -34 -26 19 -8 38 -19 42 -25 3 -5 21
-10 39 -10 19 0 39 -7 46 -15 7 -9 8 -15 2 -15 -11 0 -137 37 -162 47 -8 4
-39 14 -69 22 -65 19 -80 41 -27 41 19 0 38 -4 41 -10 8 -12 45 -13 45 -1 0
16 -24 29 -75 42 -28 7 -66 19 -85 27 -32 13 -33 15 -16 27 20 15 12 40 -10
31 -7 -3 -16 -1 -18 3 -3 5 -28 11 -55 15 -86 11 -133 34 -178 83 -24 26 -43
55 -43 64 0 9 -7 22 -15 29 -8 6 -17 21 -21 32 -3 12 -26 42 -50 67 -40 41
-46 44 -71 35 -27 -10 -28 -12 -25 -76 l3 -67 -38 -24 c-21 -13 -44 -32 -52
-41 -7 -9 -27 -16 -43 -16 -40 0 -45 -23 -18 -84 32 -73 35 -106 12 -173 -11
-32 -23 -70 -26 -85 -3 -15 -17 -39 -31 -54 -31 -34 -31 -45 0 -83 31 -36 29
-52 -15 -156 -7 -16 -17 -48 -21 -70 -16 -82 -22 -101 -40 -124 -11 -13 -19
-32 -19 -41 0 -10 -7 -23 -15 -30 -8 -7 -15 -19 -15 -28 0 -8 -16 -37 -36 -65
-20 -27 -42 -68 -50 -90 -19 -54 -29 -64 -69 -71 -29 -6 -42 -2 -70 20 -39 30
-61 27 -75 -11 -8 -20 -16 -25 -45 -25 -26 0 -39 -6 -51 -25 -10 -15 -26 -25
-40 -25 -13 0 -33 -9 -43 -19 -10 -10 -28 -22 -38 -25 -11 -4 -35 -20 -53 -36
-32 -28 -39 -30 -116 -30 -74 0 -83 -2 -89 -20 -8 -26 -45 -26 -68 0 -19 22
-33 25 -42 10 -9 -14 -73 -12 -82 3 -4 7 -21 18 -37 25 -26 12 -27 14 -13 30
21 23 2 47 -40 50 -18 1 -44 7 -58 12 -19 7 -25 6 -25 -5 0 -7 9 -17 21 -20
14 -5 19 -14 17 -28 -4 -31 -49 -30 -63 1 -5 12 -18 22 -27 23 -76 3 -101 1
-108 -11 -5 -9 -31 -14 -67 -16 -32 -1 -61 -2 -65 -3 -4 -1 -14 -15 -23 -31
-18 -35 -40 -38 -69 -11 -19 17 -28 18 -91 9 -103 -14 -105 -17 -122 -200 -7
-84 -18 -168 -23 -187 -5 -19 -9 -96 -8 -170 1 -75 -4 -183 -10 -241 -18 -158
-21 -1467 -4 -1497 11 -20 21 -23 78 -23 59 0 199 -30 234 -51 8 -5 24 -14 35
-19 11 -6 34 -19 50 -30 69 -44 118 -62 141 -49 17 9 28 8 50 -3 25 -12 29
-18 26 -52 -2 -26 3 -44 15 -58 17 -19 17 -20 -2 -34 -10 -8 -29 -14 -41 -14
-12 0 -24 -6 -27 -12 -3 -10 -7 -10 -18 -1 -8 6 -45 11 -82 12 -37 0 -71 2
-75 5 -4 2 -86 7 -182 11 -139 5 -179 4 -192 -7 -12 -9 -20 -39 -28 -98 -15
-126 -18 -118 54 -150 71 -33 96 -55 49 -45 -15 4 -38 8 -50 11 -12 2 -33 0
-47 -6 -22 -8 -26 -16 -26 -49 0 -22 5 -52 11 -68 6 -15 11 -108 11 -213 1
-232 2 -236 93 -245 36 -4 107 -4 158 0 119 9 149 10 282 3 83 -4 122 -2 157
10 43 13 48 13 63 -2 18 -17 43 -20 94 -10 31 7 32 7 9 18 -13 6 -24 21 -26
32 -6 39 17 45 174 42 124 -3 149 -5 149 -18 0 -9 12 -17 29 -20 16 -3 31 -11
34 -17 3 -10 -14 -13 -60 -14 -74 -1 -187 -6 -208 -10 -42 -5 118 -25 240 -29
47 -1 93 -6 102 -11 18 -9 78 -94 78 -109 0 -6 -9 -6 -23 -1 -17 7 -29 4 -46
-10 -13 -10 -29 -19 -37 -19 -8 0 -14 -5 -14 -11 0 -6 8 -8 18 -5 9 3 33 2 52
-2 19 -5 46 -5 60 -2 29 8 60 -5 60 -24 0 -9 -20 -13 -72 -13 -40 0 -113 -6
-162 -13 -77 -10 -97 -10 -137 3 -50 17 -87 13 -105 -9 -9 -11 -15 -10 -32 6
-12 11 -24 20 -27 20 -10 0 -5 -39 6 -46 14 -9 3 -829 -12 -886 -5 -21 -19
-42 -30 -48 -12 -7 -130 -11 -332 -11 -171 0 -332 -4 -356 -8 -50 -10 -86 1
-113 33 -15 18 -18 48 -18 241 -1 234 -12 313 -25 190 -10 -88 2 -566 14 -578
13 -13 -50 -76 -84 -85 -20 -6 -31 -18 -41 -49 -13 -38 -12 -46 6 -96 22 -59
82 -123 122 -131 13 -3 111 -11 218 -18 156 -10 885 -13 3610 -13 1878 0 3452
3 3497 6 69 6 90 12 132 38 49 32 87 79 109 136 18 48 21 920 22 6386 l0 5075
-25 74 c-14 41 -35 84 -47 97 -52 55 210 52 -3798 55 -2032 2 -3707 2 -3721 0z
m521 -476 c25 -8 59 -19 75 -26 17 -7 41 -17 55 -22 14 -6 32 -14 40 -19 8 -5
25 -13 38 -19 31 -13 71 -58 88 -99 20 -47 19 -212 -1 -252 -17 -32 -49 -49
-95 -49 -55 0 -60 16 -60 179 0 117 -3 151 -14 160 -31 26 -36 -21 -36 -353
l0 -326 -24 0 c-41 0 -124 40 -130 63 -8 29 -8 741 0 761 7 19 8 19 64 2z
m1399 -209 c32 -22 61 -79 61 -122 0 -37 -28 -99 -54 -122 -26 -22 -33 -23
-237 -23 -210 0 -210 0 -234 -25 -23 -22 -25 -32 -25 -118 l0 -95 -40 -4 c-23
-2 -46 -1 -52 3 -14 9 -5 217 11 248 7 12 27 31 44 41 29 18 52 20 244 20 239
0 233 -2 233 78 0 72 -6 73 -272 72 -129 0 -242 2 -251 6 -17 6 -23 44 -10 57
3 4 128 7 277 7 266 0 272 0 305 -23z m776 3 c14 -43 -8 -50 -151 -50 -173 0
-164 12 -164 -212 l0 -168 -40 -40 -40 -40 -174 0 c-161 0 -174 1 -179 19 -2
10 0 26 5 35 8 14 29 16 146 16 75 0 144 5 152 10 12 7 16 43 20 182 8 260 15
267 262 268 149 0 157 -1 163 -20z m569 -2 c13 -18 16 -55 16 -199 0 -152 2
-178 16 -183 9 -3 20 -4 25 -1 14 9 49 -14 49 -33 0 -26 -20 -42 -52 -42 -21
0 -31 -6 -38 -25 -8 -22 -16 -25 -55 -25 -39 0 -47 3 -55 25 l-10 25 -239 0
c-213 0 -241 2 -261 18 -26 21 -20 43 18 68 15 10 68 47 117 84 146 108 344
253 383 282 46 33 66 34 86 6z m-2834 -315 l0 -58 -73 -29 c-85 -35 -97 -43
-77 -56 17 -11 72 -3 109 16 34 18 43 6 39 -47 l-3 -44 -79 -3 c-82 -3 -143
13 -198 50 -21 15 -28 28 -28 53 0 28 7 39 37 60 21 14 43 25 48 25 10 0 57
20 160 70 62 29 65 27 65 -37z m523 -12 c98 -38 111 -89 34 -138 -65 -41 -339
-155 -349 -145 -5 5 -8 29 -6 53 3 49 -8 41 181 128 125 57 55 73 -78 17 -44
-19 -85 -31 -93 -29 -9 4 -12 21 -10 55 l3 50 50 19 c69 25 189 21 268 -10z
m670 -682 c104 -26 148 -132 98 -235 -26 -53 -41 -65 -104 -79 l-52 -11 -3
-63 c-2 -37 -8 -63 -15 -66 -37 -11 -64 -13 -75 -6 -9 5 -14 65 -18 214 -8
249 -5 257 77 257 27 0 69 -5 92 -11z m214 3 c9 -6 13 -58 15 -182 l3 -175 60
-5 60 -5 3 -47 c3 -47 3 -47 -33 -54 -55 -10 -176 1 -186 17 -11 17 -9 405 3
437 8 23 49 31 75 14z m409 -18 c22 -32 116 -390 112 -424 -5 -46 -78 -39
-103 10 -15 28 -19 30 -74 30 -57 0 -59 -1 -70 -30 -9 -27 -14 -30 -56 -30
-27 0 -48 5 -50 13 -4 10 14 85 65 262 4 17 16 57 25 90 24 90 37 105 90 105
37 0 47 -4 61 -26z m152 10 c12 -8 22 -21 23 -27 0 -7 8 -30 18 -52 l18 -40
32 63 c32 64 33 64 101 65 40 1 36 -25 -22 -141 -51 -104 -53 -110 -58 -212
l-5 -105 -37 -6 c-58 -9 -62 -2 -68 118 -5 106 -6 110 -58 216 -44 87 -51 111
-42 122 16 20 70 19 98 -1z m411 0 c40 -24 80 -94 70 -122 -12 -32 -68 -30
-99 3 -27 29 -42 31 -60 10 -17 -20 0 -40 55 -65 54 -25 92 -64 106 -110 14
-45 8 -74 -24 -120 -31 -48 -62 -62 -125 -57 -72 5 -112 43 -115 108 -2 43 -1
44 32 47 26 3 40 -2 58 -23 28 -29 58 -30 58 0 0 13 -18 29 -54 50 -80 45 -96
71 -95 158 1 69 1 71 39 104 31 27 47 33 83 33 24 0 56 -7 71 -16z m342 6 c14
-8 19 -21 19 -49 0 -40 -11 -51 -50 -51 -34 0 -33 7 -38 -258 -2 -88 -3 -93
-27 -104 -19 -8 -31 -8 -50 0 l-25 11 -2 173 c-3 164 -4 173 -23 176 -63 9
-65 11 -65 50 0 21 5 43 12 50 15 15 221 16 249 2z m201 -7 c21 -25 128 -394
128 -442 0 -16 -41 -22 -75 -13 -19 5 -31 17 -35 33 -6 22 -10 24 -70 24 -60
0 -64 -2 -80 -30 -13 -24 -24 -31 -53 -33 -49 -4 -54 11 -32 101 19 81 60 229
74 267 5 14 12 37 15 52 3 15 13 34 22 42 21 22 87 21 106 -1z m334 3 c4 -11
13 -10 49 3 41 14 45 14 64 -3 18 -17 21 -31 22 -115 l0 -96 20 60 c21 62 71
125 121 151 33 17 121 18 151 2 76 -43 127 -134 127 -227 0 -123 -81 -229
-182 -239 -109 -10 -188 54 -225 183 -6 24 -8 13 -10 -50 -4 -125 -5 -127 -61
-123 l-47 3 -3 175 c-2 188 -5 211 -24 192 -7 -7 -22 -12 -35 -12 -12 0 -27
-9 -33 -19 -6 -11 -10 -87 -10 -174 0 -164 -2 -172 -50 -175 -47 -2 -50 9 -50
175 0 87 -4 163 -10 174 -6 10 -21 19 -33 19 -31 0 -47 18 -47 55 0 50 12 55
142 55 91 0 120 -3 124 -14z m662 6 c13 -9 42 -56 89 -150 15 -29 32 -51 38
-49 5 2 12 46 15 97 l5 94 32 7 c63 13 64 8 61 -235 l-3 -220 -27 -7 c-15 -4
-37 -5 -48 -2 -17 5 -75 93 -106 163 -6 14 -18 31 -27 39 -16 12 -17 5 -17
-86 0 -54 -4 -103 -10 -109 -5 -5 -28 -8 -50 -6 l-40 4 0 222 c0 159 3 225 12
234 14 14 57 16 76 4z m520 -4 c7 -7 12 -44 12 -94 0 -46 3 -85 8 -87 4 -2 28
-2 55 1 l47 4 0 78 c0 86 12 110 55 110 52 0 55 -14 55 -240 0 -226 -3 -240
-55 -240 -42 0 -55 24 -55 106 l0 74 -55 0 -54 0 -3 -82 -3 -83 -45 0 -45 0
-8 60 c-13 97 -4 369 12 388 16 20 62 22 79 5z m343 2 c18 -10 19 -23 19 -235
l0 -224 -35 -7 c-64 -12 -65 -7 -65 235 0 155 3 220 12 229 15 15 43 15 69 2z
m313 -6 c9 -8 16 -26 16 -40 0 -30 13 -31 29 -1 19 35 63 57 115 57 40 0 51
-5 85 -39 64 -64 63 -121 -2 -121 -20 0 -41 10 -59 27 -25 24 -30 25 -44 12
-21 -22 -9 -43 35 -62 21 -9 55 -32 76 -50 33 -28 38 -39 43 -86 4 -41 0 -63
-13 -88 -56 -104 -216 -96 -254 13 -19 55 -11 74 35 74 27 0 41 -7 56 -26 24
-30 63 -30 63 0 0 13 -16 28 -45 43 -86 46 -120 93 -120 169 0 36 -3 44 -12
36 -7 -6 -26 -12 -43 -14 l-30 -3 -3 -170 c-1 -93 -7 -174 -12 -179 -14 -14
-82 -8 -92 7 -4 7 -8 87 -8 179 l0 167 -37 3 c-37 3 -38 4 -41 47 -2 28 1 47
10 52 7 5 63 9 125 9 88 0 115 -3 127 -16z m-4216 -223 c2 -13 -2 -28 -10 -32
-18 -12 -300 -11 -578 1 -267 11 -326 18 -311 33 16 16 230 24 586 23 l310 -1
3 -24z m5525 13 c81 -7 99 -18 45 -27 -52 -9 -662 -28 -788 -25 l-115 3 -3 34
-3 34 393 -6 c216 -4 428 -10 471 -13z m-2681 -401 c103 -3 185 -10 182 -15
-7 -12 -1321 -10 -1329 2 -3 5 33 11 92 13 199 6 874 7 1055 0z m-697 -693 c4
-6 1 -17 -5 -25 -7 -8 -9 -26 -6 -40 5 -21 9 -23 25 -14 28 18 71 3 84 -31 7
-19 20 -30 39 -34 16 -3 36 -13 44 -21 23 -23 37 -18 30 10 -7 26 10 36 20 11
3 -8 13 -12 22 -10 9 2 70 5 134 7 127 5 129 4 121 -51 -6 -38 -18 -48 -38
-32 -7 6 -33 12 -57 13 l-43 2 0 -50 c0 -54 4 -56 74 -44 20 3 26 -1 31 -21 4
-16 12 -24 23 -22 11 2 17 -4 17 -18 0 -27 10 -25 44 10 32 32 51 38 59 17 8
-22 -5 -71 -24 -90 -13 -12 -19 -32 -19 -60 0 -23 -9 -62 -20 -86 -11 -24 -20
-48 -20 -53 0 -33 -164 -195 -235 -231 -21 -12 -35 -26 -35 -38 0 -26 -12 -24
-40 6 -24 26 -24 26 -40 6 -18 -24 -29 -18 -55 32 -18 34 -23 37 -63 37 -37 0
-54 8 -102 43 -79 60 -114 102 -161 196 -34 67 -42 94 -50 177 -6 54 -12 101
-15 106 -9 14 40 132 73 176 18 24 33 48 33 53 0 5 11 11 25 15 14 3 30 14 35
23 8 14 9 13 10 -6 0 -12 -9 -28 -21 -36 -24 -17 -10 -32 21 -22 13 4 20 15
20 30 0 22 36 74 52 75 4 0 10 -5 13 -10z m-415 -2923 c52 -31 110 -84 158
-145 33 -43 42 -62 40 -88 -1 -20 5 -41 15 -52 15 -16 16 -27 7 -72 -5 -29
-10 -54 -10 -57 0 -2 -12 -8 -26 -13 -22 -9 -24 -13 -14 -25 7 -8 21 -15 31
-15 15 0 19 -7 19 -33 0 -53 -18 -69 -77 -69 -33 1 -56 -4 -63 -14 -17 -20
-30 -18 -30 6 0 11 -8 29 -17 40 -22 26 -53 26 -53 1 0 -26 -27 -48 -42 -33
-9 9 -8 18 0 37 14 29 8 45 -14 45 -10 0 -14 -9 -12 -27 2 -23 0 -27 -17 -25
-28 5 -30 9 -15 27 11 13 9 15 -13 15 -13 0 -31 7 -38 16 -9 11 -23 14 -46 11
-30 -5 -33 -3 -33 18 0 29 35 52 54 36 6 -6 22 -7 35 -4 14 3 26 1 31 -7 6 -9
13 -9 28 -1 11 6 30 11 41 11 32 0 25 26 -14 50 -19 12 -35 26 -35 31 0 5 -18
9 -39 9 -22 0 -43 5 -46 10 -3 6 -15 10 -26 10 -29 0 -108 68 -115 99 -4 14
-14 38 -22 53 -24 41 -3 58 34 29 35 -28 52 -14 34 28 -13 33 -8 48 23 62 12
5 29 13 37 18 14 9 63 30 100 44 25 10 93 -4 130 -26z m-842 -325 c2 -12 14
-30 28 -38 13 -9 24 -21 24 -28 0 -6 18 -31 41 -54 38 -42 40 -47 42 -115 2
-91 -33 -178 -81 -205 -54 -30 -92 -70 -93 -100 -3 -53 -6 -68 -28 -109 -11
-23 -21 -48 -21 -56 0 -7 -19 -32 -43 -55 l-43 -42 -29 30 c-27 28 -29 34 -27
110 1 45 6 89 12 100 5 10 10 41 10 68 0 39 4 52 21 64 24 16 43 102 28 130
-5 10 -5 36 1 65 5 26 12 64 15 84 3 20 18 53 33 73 15 19 38 51 52 70 28 40
53 43 58 8z m552 -533 c25 -12 71 -23 103 -26 32 -3 61 -11 63 -18 4 -9 40
-12 137 -9 107 2 142 6 187 24 86 34 87 34 92 8 6 -33 -1 -58 -17 -58 -7 0
-18 -6 -24 -14 -11 -13 -119 -33 -151 -28 -8 2 -22 4 -30 5 -8 2 -34 9 -58 15
-23 7 -47 10 -52 7 -13 -8 -88 13 -92 27 -3 7 -10 7 -24 -2 -18 -11 -27 -10
-60 7 -21 11 -64 31 -94 44 -30 12 -59 27 -64 31 -20 16 40 7 84 -13z m-2545
-285 c14 -15 25 -32 25 -37 0 -6 6 -18 14 -26 15 -18 27 -93 17 -109 -8 -13
-81 -4 -81 9 0 5 -15 9 -34 9 -49 0 -52 14 -9 50 26 22 34 34 24 37 -7 3 -27
18 -44 33 -27 24 -29 30 -18 44 22 26 78 20 106 -10z m2542 -346 c80 -46 86
-65 26 -99 -27 -16 -29 -16 -53 12 -13 16 -31 29 -39 29 -8 0 -25 9 -37 21
-25 23 -44 18 -44 -12 0 -10 -7 -19 -15 -19 -17 0 -49 56 -41 75 12 31 144 27
203 -7z m1068 -1595 c41 -21 66 -44 59 -55 -3 -5 1 -20 10 -33 15 -23 22 -24
129 -27 162 -4 107 -24 -93 -33 -172 -7 -220 -11 -267 -20 -25 -4 -33 -2 -37
12 -9 31 -19 161 -13 170 9 14 178 3 212 -14z m2695 -1286 c0 -8 -9 -22 -20
-32 -22 -20 -26 -35 -10 -35 6 0 10 5 10 12 0 19 62 68 87 68 25 0 30 -19 11
-38 -23 -23 3 -12 30 13 24 23 35 25 114 25 l88 0 0 -95 c0 -76 -4 -104 -20
-135 -30 -59 -56 -71 -147 -71 -43 0 -102 0 -130 0 -34 1 -53 5 -53 12 0 8 -7
6 -18 -4 -10 -10 -25 -17 -33 -17 -31 0 -39 24 -39 112 0 98 13 137 59 175 29
25 71 30 71 10z m490 -81 c0 -105 -14 -152 -56 -185 -49 -39 -85 -25 -51 21
18 24 22 45 25 131 2 56 5 108 7 115 3 6 20 12 40 12 l35 0 0 -94z m-532 -288
c7 -7 12 -21 12 -31 0 -15 -5 -18 -25 -13 -18 5 -25 2 -25 -9 0 -8 7 -15 15
-15 8 0 19 -9 26 -21 11 -21 11 -20 30 10 21 35 56 53 79 41 8 -4 21 -5 28 -3
7 3 18 0 25 -5 8 -7 18 -7 27 -2 8 6 32 10 52 10 28 0 40 -5 49 -21 14 -27 27
-14 31 30 4 47 23 49 44 5 14 -29 15 -40 6 -55 -15 -24 -15 -51 0 -84 17 -38
-3 -54 -32 -25 l-22 22 -15 -21 c-20 -29 -33 -18 -33 29 0 21 -3 45 -6 54 -10
25 -34 19 -34 -8 0 -52 -12 -86 -31 -86 -11 0 -19 5 -19 12 0 6 -10 2 -23 -10
-13 -12 -33 -22 -45 -22 -19 0 -22 -5 -22 -42 0 -24 5 -50 10 -58 7 -10 10
-11 10 -2 0 7 14 21 31 31 34 21 66 16 100 -15 15 -13 17 -13 22 6 4 16 13 20
51 20 56 0 66 -15 66 -99 0 -54 -2 -61 -19 -61 -17 0 -20 8 -23 53 -2 38 -7
52 -18 52 -11 0 -16 -15 -20 -52 -3 -28 -8 -55 -12 -58 -11 -12 -28 5 -28 27
0 21 -1 21 -28 -5 -32 -31 -67 -35 -93 -11 -17 15 -19 15 -35 0 -23 -24 -42
-4 -46 47 -3 38 -4 39 -14 16 -6 -13 -17 -37 -23 -53 -9 -23 -14 -26 -26 -16
-7 6 -15 24 -17 38 -4 36 -22 34 -28 -3 -3 -18 -12 -31 -23 -33 -15 -3 -17 5
-16 60 1 135 47 193 76 96 7 -27 18 -48 23 -48 5 0 13 18 16 41 4 22 15 48 25
57 17 16 17 18 -1 40 -23 28 -34 28 -52 0 -13 -20 -19 -21 -43 -13 -33 12 -51
36 -42 59 6 15 9 15 31 1 16 -11 26 -13 31 -6 9 15 -2 29 -36 46 -24 13 -29
22 -29 53 0 45 14 62 50 62 14 0 31 -5 38 -12z m532 -117 l0 -79 -46 -7 c-63
-9 -89 15 -89 84 0 66 15 81 81 81 l54 0 0 -79z m-94 -154 c1 -48 11 -57 32
-31 9 12 25 24 35 28 28 9 59 -12 55 -37 -2 -16 -10 -21 -33 -22 -25 0 -31 -4
-33 -27 -3 -26 18 -43 49 -36 18 4 24 -33 7 -43 -23 -15 -58 -10 -75 11 -20
23 -33 26 -33 6 0 -15 -24 -28 -34 -19 -8 9 -8 198 1 207 15 14 27 -2 29 -37z
m272 -89 l3 -77 -46 -7 c-40 -5 -49 -3 -71 17 -18 17 -24 33 -24 67 0 65 20
84 84 80 l51 -3 3 -77z m-714 -124 c3 -9 6 -23 6 -31 0 -14 -3 -14 -19 1 -22
20 -41 14 -41 -13 0 -11 12 -24 29 -31 16 -6 33 -19 37 -28 6 -11 10 5 14 46
5 61 22 88 28 46 2 -14 14 -24 35 -31 24 -6 33 -15 35 -33 8 -81 13 -91 35
-88 19 3 23 11 27 55 6 60 13 71 35 53 13 -10 19 -10 33 4 10 9 33 16 50 16
18 0 32 4 32 9 0 12 28 41 39 41 5 0 11 -18 14 -41 7 -53 12 -57 40 -31 29 28
55 28 84 0 26 -25 31 -91 9 -120 -20 -27 -69 -33 -90 -13 -11 12 -21 14 -29 7
-23 -18 -123 -22 -146 -5 -16 11 -25 12 -35 4 -12 -10 -37 -12 -135 -12 -19 1
-42 8 -53 17 -11 11 -18 13 -18 5 0 -6 -11 -16 -25 -21 -45 -17 -93 16 -79 55
9 21 25 19 31 -5 7 -25 43 -27 43 -2 0 10 -16 31 -35 46 -56 45 -46 116 16
116 15 0 29 -7 33 -16z"/>
<path d="M4153 11127 c-22 -18 -100 -75 -172 -127 -71 -52 -130 -100 -131
-107 0 -9 42 -11 173 -8 94 2 178 4 185 4 9 1 12 35 12 136 0 102 -3 135 -12
134 -7 0 -32 -14 -55 -32z"/>
<path d="M5024 10127 c-23 -20 -28 -34 -32 -85 -4 -50 0 -67 17 -95 35 -57
105 -58 150 -1 39 50 22 167 -28 194 -33 17 -78 11 -107 -13z"/>
<path d="M4730 8760 c0 -4 7 -24 15 -44 12 -28 13 -45 5 -78 -5 -24 -10 -62
-10 -86 0 -38 -6 -49 -42 -86 -71 -70 -156 -83 -235 -34 -37 22 -42 15 -13
-22 11 -14 20 -35 20 -47 0 -12 8 -26 18 -32 15 -9 15 -13 4 -31 -12 -19 -11
-24 5 -36 14 -11 35 -13 93 -8 41 3 80 6 85 5 6 0 27 -4 47 -7 21 -3 46 -3 55
1 10 5 23 7 29 6 28 -4 67 30 89 78 22 46 22 51 7 60 -9 5 -39 7 -68 4 -47 -5
-53 -3 -59 16 -4 13 -1 27 8 35 16 17 22 112 7 121 -12 8 -13 52 -1 59 4 3 9
27 9 53 1 45 -1 49 -34 64 -18 9 -34 13 -34 9z"/>
<path d="M4517 8722 c-78 -86 -18 -267 81 -243 13 3 36 26 52 50 29 43 33 77
15 156 -10 47 -115 73 -148 37z"/>
<path d="M929 11673 c-3 -40 3 -1219 7 -1222 17 -17 20 79 21 624 2 520 0 605
-13 605 -8 0 -14 -3 -15 -7z"/>
<path d="M930 10031 c0 -186 -2 -351 -5 -367 -3 -16 -1 -36 4 -44 9 -13 12
-13 24 0 11 12 13 31 6 90 -4 41 -8 207 -8 368 -1 187 -5 292 -11 292 -6 0
-10 -120 -10 -339z"/>
<path d="M6652 9009 c-13 -11 -20 -25 -16 -30 10 -17 -17 -39 -47 -39 -24 0
-30 -6 -40 -40 -7 -22 -16 -40 -21 -40 -5 0 -6 5 -3 10 6 9 -16 15 -39 11 -5
-1 -6 11 -3 27 12 58 -33 69 -83 20 -33 -33 -41 -57 -68 -198 -5 -25 -17 -73
-27 -107 -15 -48 -24 -63 -42 -68 -32 -8 -29 -24 7 -31 35 -7 42 -35 8 -31
-23 2 -25 -9 -19 -107 1 -6 15 12 32 39 27 42 30 54 24 92 -4 28 -2 43 4 43 6
0 11 -7 11 -15 0 -8 5 -15 11 -15 7 0 9 9 5 24 -4 16 -1 26 9 30 8 3 15 16 15
28 1 13 20 42 45 68 25 25 45 52 45 60 0 8 4 22 10 30 7 12 12 12 34 0 24 -12
28 -11 47 8 11 12 24 22 29 22 13 0 13 -2 -5 -37 -11 -21 -13 -38 -6 -54 8
-22 10 -20 24 26 25 80 39 118 53 147 8 14 14 37 14 51 0 13 5 38 11 56 14 40
9 46 -19 20z"/>
<path d="M2595 8927 c-75 -19 -108 -48 -127 -111 -10 -31 -18 -64 -18 -73 0
-9 -8 -22 -17 -29 -15 -10 -16 -15 -5 -25 6 -7 12 -27 12 -44 0 -50 18 -59 51
-25 16 16 29 33 29 39 0 17 43 24 144 22 87 -2 103 -5 137 -28 22 -14 42 -23
46 -19 16 16 6 132 -14 171 -31 59 -106 125 -142 125 -16 0 -35 2 -43 4 -7 2
-31 -1 -53 -7z"/>
<path d="M7186 8889 c-19 -38 -25 -61 -22 -92 7 -67 54 -144 71 -117 4 6 13
62 21 123 13 103 12 113 -3 125 -29 21 -41 14 -67 -39z"/>
<path d="M1747 8914 c-31 -10 -63 -31 -89 -57 -35 -36 -39 -46 -34 -75 4 -25
0 -37 -15 -50 -10 -9 -19 -22 -19 -29 0 -15 31 -18 46 -5 5 5 45 19 88 32 66
19 95 22 169 17 57 -3 92 -9 97 -17 9 -15 96 -50 121 -50 23 0 30 24 23 72 -5
27 -14 43 -28 50 -12 5 -30 24 -41 41 -45 70 -208 106 -318 71z"/>
<path d="M3346 8904 c-16 -16 -16 -70 -1 -181 9 -61 22 -66 67 -28 19 16 42
25 63 25 50 0 139 -22 148 -37 4 -7 16 -13 26 -13 11 0 21 -7 25 -15 9 -24 36
-18 36 8 0 34 -34 128 -61 170 -32 48 -107 77 -211 83 -60 2 -81 0 -92 -12z"/>
<path d="M7463 8910 c-21 -8 -23 -17 -24 -77 -2 -97 2 -167 9 -174 4 -3 32 -1
62 5 47 10 58 17 83 52 40 58 48 126 18 158 -13 13 -39 27 -59 31 -21 3 -44 8
-52 10 -8 2 -25 0 -37 -5z"/>
<path d="M6702 8760 c-27 -69 -41 -109 -51 -148 -9 -31 -19 -46 -38 -53 -20
-7 -24 -14 -18 -32 16 -53 16 -65 -2 -87 -10 -12 -28 -26 -40 -31 -24 -9 -32
-52 -13 -64 6 -3 10 -1 10 5 0 6 5 8 11 4 8 -4 8 -9 0 -17 -6 -6 -11 -24 -11
-39 0 -21 5 -28 19 -28 15 0 23 14 37 58 16 53 56 112 77 112 12 0 46 -42 47
-57 0 -7 15 -24 34 -38 19 -14 39 -39 45 -56 12 -35 23 -36 51 -7 21 23 27 48
10 48 -14 0 -43 69 -46 110 -5 66 12 86 46 55 9 -8 31 -18 48 -21 31 -6 32 -6
26 24 -4 17 -1 32 5 36 6 4 11 11 11 17 0 15 -22 10 -35 -8 -12 -16 -14 -16
-39 0 -15 10 -30 16 -34 14 -31 -19 -94 72 -107 154 -3 19 -12 44 -19 55 -14
18 -15 18 -24 -6z"/>
<path d="M3081 8615 c-2 -57 -11 -85 -28 -85 -11 0 -14 7 -10 20 4 18 2 20
-16 14 -12 -4 -47 -6 -77 -6 -61 1 -98 -12 -67 -24 10 -3 17 -17 17 -33 1 -24
2 -25 15 -8 9 13 20 17 35 12 12 -4 27 -1 36 6 49 41 35 -96 -20 -188 -23 -40
-37 -53 -55 -53 -21 0 -23 3 -18 34 5 31 3 34 -21 39 -15 3 -29 1 -31 -6 -2
-6 -15 -21 -27 -34 -26 -26 -32 -53 -11 -53 15 0 40 27 50 55 6 13 11 15 18 8
7 -7 8 -17 3 -25 -5 -7 -7 -20 -6 -29 4 -26 -32 -51 -70 -47 -24 2 -33 8 -32
21 2 20 -2 20 -42 8 -16 -5 -52 -12 -81 -15 -49 -6 -54 -4 -117 39 -55 37 -70
44 -86 35 -24 -13 -26 -26 -5 -34 17 -6 20 -26 4 -26 -6 0 -35 16 -65 36 -39
26 -54 42 -54 59 0 13 -7 25 -15 29 -10 4 -13 14 -9 36 4 19 2 30 -5 30 -15 0
-10 88 6 94 7 3 17 -2 22 -12 9 -15 13 -15 55 6 66 32 60 46 -17 39 -45 -4
-71 -2 -90 8 -26 14 -27 13 -27 -17 0 -23 -4 -29 -16 -24 -9 3 -27 -3 -41 -14
-20 -15 -34 -19 -60 -14 -33 6 -34 5 -27 -20 8 -35 -8 -34 -56 5 -32 26 -44
30 -67 24 -15 -4 -47 -8 -71 -9 -34 0 -41 -4 -36 -16 3 -8 8 -31 11 -50 3 -19
17 -56 30 -82 22 -45 26 -48 63 -48 29 0 40 -4 40 -15 0 -8 -4 -15 -10 -15 -5
0 -16 -13 -24 -29 -14 -25 -22 -30 -68 -33 -96 -8 -186 19 -224 69 -23 30 -30
33 -57 27 -18 -4 -37 -13 -43 -22 -8 -11 -13 -12 -18 -4 -4 7 -20 12 -37 12
-38 0 -39 31 -3 65 31 28 35 30 52 13 16 -16 15 1 0 35 -14 29 -28 36 -28 12
0 -8 -4 -15 -10 -15 -5 0 -10 8 -10 18 0 22 -46 66 -60 57 -18 -11 -11 -32 20
-63 31 -32 30 -42 -6 -42 -23 0 -24 3 -40 93 -3 20 -10 37 -15 37 -5 0 -9 5
-9 11 0 7 12 9 33 5 35 -7 108 13 114 31 3 7 -29 11 -88 12 l-92 2 7 -33 c4
-18 9 -53 13 -78 3 -25 11 -52 18 -60 10 -13 29 -48 66 -121 4 -9 12 -35 19
-57 14 -55 66 -120 120 -154 42 -26 56 -28 190 -35 l145 -8 14 -29 c20 -43 26
-104 11 -131 -7 -13 -17 -22 -21 -20 -4 3 -28 -2 -53 -10 -35 -12 -51 -13 -67
-5 -19 11 -205 14 -629 12 -115 -1 -126 -3 -142 -23 -24 -29 -23 -96 2 -137
23 -38 26 -70 6 -78 -40 -15 -53 -167 -37 -419 6 -99 13 -263 16 -363 3 -101
7 -187 10 -192 3 -4 -2 -21 -10 -38 -13 -26 -15 -82 -12 -374 5 -369 13 -467
43 -513 10 -16 19 -43 20 -60 3 -86 5 -95 18 -95 8 0 18 9 21 20 5 15 15 20
40 20 23 0 38 6 44 19 6 10 24 24 40 31 26 10 36 9 74 -9 24 -12 53 -21 64
-21 11 0 32 -9 46 -20 27 -22 31 -20 41 22 3 15 14 29 24 32 10 3 19 16 19 28
5 56 13 69 41 66 20 -2 29 -11 36 -35 12 -44 31 -42 79 10 22 23 61 53 86 67
38 22 46 30 44 53 -2 26 0 27 54 27 46 0 56 3 60 20 3 10 14 22 24 25 10 4 28
19 40 36 11 16 25 27 30 23 6 -3 27 11 47 32 20 21 40 39 44 39 3 0 9 3 13 6
9 10 -14 173 -30 213 -22 51 -20 145 3 153 9 4 32 19 50 35 18 15 41 28 51 28
10 0 24 7 31 15 7 8 24 15 39 15 16 0 37 11 54 30 16 17 33 30 38 30 8 0 32
47 58 115 8 20 23 35 43 43 26 10 29 14 18 27 -14 17 -41 20 -56 5 -7 -7 -18
-2 -34 15 -28 30 -21 51 23 73 34 17 34 26 0 39 l-28 10 29 12 c23 9 26 14 16
26 -6 7 -21 15 -33 17 -19 3 -22 9 -22 45 0 23 -3 45 -7 49 -16 16 -8 62 15
78 22 16 22 17 -15 13 l-38 -3 0 52 c0 54 8 64 51 64 16 0 19 -7 19 -50 0 -44
3 -50 20 -50 29 0 34 23 14 62 -10 18 -17 37 -16 42 2 4 -2 14 -9 22 -19 23
-3 44 34 44 53 0 93 18 121 55 31 41 32 48 6 40 -14 -5 -20 -2 -20 9 0 9 8 16
20 16 14 0 21 9 26 36 6 32 3 39 -30 69 l-36 33 20 35 c12 20 32 43 46 51 26
18 33 56 9 56 -8 0 -15 -4 -15 -10 0 -18 -18 -10 -23 10 -7 27 -44 26 -53 -2
l-6 -21 -18 23 c-13 18 -23 21 -43 16 -14 -3 -28 -2 -31 3 -16 26 -144 -24
-153 -60 -7 -26 -26 -24 -38 4 -7 15 -19 22 -38 22 -39 1 -52 21 -65 103 -8
47 -21 85 -36 105 -30 41 -39 69 -26 77 11 7 3 40 -10 40 -4 0 -10 -9 -13 -21
-7 -28 -24 -17 -32 22 -4 16 -18 42 -31 56 -13 14 -24 37 -24 51 0 24 1 24 18
9 14 -13 21 -14 30 -5 9 9 12 9 12 0 0 -7 -4 -12 -10 -12 -5 0 -10 -7 -10 -15
0 -8 5 -15 10 -15 9 0 50 36 50 44 0 2 -9 6 -20 9 -14 3 -20 14 -20 31 0 28 9
33 28 14 16 -16 18 -11 25 41 3 25 2 39 -2 32 -7 -10 -13 -10 -30 -2 -22 12
-26 27 -15 56 6 14 8 14 25 -1 18 -16 19 -16 19 23 0 39 -1 41 -37 46 -45 8
-59 -3 -42 -31 7 -12 10 -25 6 -29 -12 -12 -27 18 -27 55 0 28 3 32 19 27 14
-4 23 0 31 15 11 20 13 20 29 6 16 -14 19 -14 33 1 26 25 46 9 54 -44 11 -78
18 -81 50 -16 23 44 29 70 27 106 -3 59 13 53 23 -8 3 -25 14 -56 24 -68 10
-13 27 -48 37 -78 32 -96 142 -251 181 -257 12 -2 29 -16 37 -31 17 -35 46
-43 101 -31 26 6 54 6 75 0 26 -8 36 -7 44 3 29 39 142 52 177 21 17 -16 20
-15 53 21 30 31 38 35 51 24 8 -7 13 -21 11 -30 -3 -12 2 -20 14 -24 27 -9 43
3 28 21 -9 11 -8 19 6 34 30 33 14 47 -50 42 l-57 -5 4 29 c3 29 3 29 67 27
38 -1 69 -7 76 -15 7 -7 23 -39 35 -70 25 -61 46 -74 97 -62 18 5 30 2 38 -9
11 -15 16 -15 61 7 27 13 74 27 104 31 63 8 201 71 207 94 2 9 22 27 44 41 21
13 39 32 39 41 0 10 4 20 9 24 5 3 17 28 26 55 10 29 23 50 31 50 8 0 19 11
24 24 5 14 18 29 28 35 16 9 19 22 19 91 0 44 -2 80 -4 80 -3 0 -11 -7 -19
-15 -12 -12 -20 -12 -36 -4 -26 14 -111 2 -105 -14 2 -7 13 -16 25 -22 28 -12
29 -35 2 -35 -11 0 -23 -8 -26 -17 -3 -10 -11 -29 -17 -42 -9 -19 -9 -25 1
-28 6 -3 12 -11 12 -19 0 -11 5 -11 25 -2 14 6 25 20 25 30 0 11 12 35 27 54
22 29 24 37 12 45 -8 5 -18 9 -24 9 -5 0 -2 5 8 11 34 20 57 -4 73 -79 4 -23
4 -25 -6 -9 -11 18 -13 18 -31 1 -10 -9 -19 -25 -19 -36 0 -10 -4 -18 -9 -18
-6 0 -16 -12 -23 -27 -7 -14 -21 -31 -31 -37 -15 -9 -22 -7 -37 12 -24 29 -47
26 -74 -11 -18 -24 -19 -29 -6 -37 11 -7 16 -4 18 10 4 24 30 27 39 5 8 -23
-26 -55 -57 -55 -34 0 -43 9 -27 28 10 13 9 15 -6 9 -10 -4 -26 -7 -36 -7 -10
0 -38 -14 -64 -31 -28 -18 -51 -27 -59 -23 -7 5 -45 8 -85 9 -64 0 -72 -2 -68
-16 8 -24 -8 -31 -52 -21 -21 5 -53 5 -71 1 -33 -7 -34 -5 -53 39 -22 50 -18
91 5 60 23 -32 33 -19 38 45 5 65 -6 117 -29 130 -8 5 -13 29 -13 70 -1 34 -7
76 -15 92 l-13 30 -1 -40z m-1236 -1067 c51 -10 59 -15 71 -44 8 -18 14 -42
14 -53 0 -10 10 -37 22 -59 20 -39 20 -42 4 -66 -19 -30 -27 -31 -64 -12 -15
7 -45 17 -67 21 -22 4 -45 11 -52 17 -8 6 -19 6 -32 -1 -25 -14 -121 -14 -155
-1 -38 14 -62 56 -50 89 12 35 6 81 -12 81 -8 0 -14 5 -14 10 0 13 60 13 80 0
9 -6 19 -5 29 3 12 10 36 14 152 25 9 1 42 -3 74 -10z"/>
<path d="M3147 8573 c-4 -6 -1 -13 5 -16 10 -3 10 -7 0 -20 -8 -9 -12 -26 -10
-39 4 -30 34 -36 43 -8 8 25 26 22 40 -8 6 -14 16 -20 26 -17 10 3 21 0 26 -7
5 -9 10 -1 13 22 4 27 10 36 28 38 16 3 22 -2 22 -17 0 -11 5 -23 10 -26 6 -3
7 -17 4 -31 -4 -14 -2 -24 4 -24 16 0 25 61 15 101 -9 32 -12 34 -56 37 -35 2
-49 -1 -53 -12 -8 -20 -21 -20 -40 -1 -9 8 -26 15 -39 15 -13 0 -25 5 -27 12
-3 9 -6 9 -11 1z"/>
<path d="M6890 8418 c0 -13 7 -33 15 -44 8 -10 15 -32 15 -49 0 -31 37 -65 88
-80 25 -7 29 -30 7 -39 -17 -6 -47 3 -57 18 -4 7 -14 6 -30 -1 -13 -6 -38 -17
-55 -25 -43 -17 -46 -29 -25 -91 23 -65 57 -84 169 -93 62 -5 81 -3 90 8 12
14 43 119 43 145 0 11 -36 31 -82 47 -10 3 -18 12 -18 20 0 8 -11 26 -25 40
-14 14 -25 31 -25 39 0 10 -8 13 -25 9 -18 -3 -25 0 -25 12 0 9 7 16 15 16 11
0 13 8 8 33 -7 40 -10 43 -50 52 -30 6 -33 4 -33 -17z"/>
<path d="M6485 8220 c-5 -16 -12 -19 -31 -14 -16 4 -31 1 -42 -9 -9 -8 -26
-17 -36 -18 -24 -5 -36 -46 -27 -90 8 -37 16 -43 93 -60 78 -16 97 -7 114 57
19 73 17 89 -17 123 -36 36 -45 38 -54 11z"/>
<path d="M3758 7488 c-19 -35 -38 -99 -38 -135 0 -17 -6 -38 -13 -45 -10 -10
-14 -51 -13 -164 0 -102 -4 -160 -13 -182 -13 -30 -16 -32 -68 -32 -58 0 -133
-30 -133 -54 0 -7 20 -19 45 -26 60 -17 173 -98 231 -165 25 -30 63 -65 83
-77 61 -37 141 -102 141 -115 0 -24 45 -61 81 -66 l36 -5 -46 45 c-45 43 -45
45 -26 59 15 11 24 39 37 117 17 110 50 217 79 258 41 59 31 106 -16 75 -24
-16 -55 -22 -55 -11 0 3 7 16 15 29 9 13 15 36 15 52 0 16 -1 45 -1 64 0 19
-5 48 -11 63 -7 19 -8 31 -1 38 13 13 1 71 -16 77 -14 5 -12 -22 4 -60 11 -26
-14 -22 -39 6 -14 15 -36 25 -65 29 -24 3 -47 11 -52 18 -6 10 -12 9 -27 -4
-19 -17 -20 -17 -26 0 -5 12 -2 21 9 28 55 33 65 46 65 91 0 39 -3 44 -27 50
-14 4 -40 2 -58 -5 -48 -17 -54 -14 -57 26 -4 43 -22 53 -40 21z"/>
<path d="M1116 1548 c-14 -19 -16 -79 -16 -444 0 -400 1 -423 19 -446 l19 -24
356 1 c338 2 357 3 371 21 12 16 14 90 15 450 0 405 -1 432 -18 447 -17 15
-57 17 -375 17 l-356 0 -15 -22z m546 -221 c31 -40 33 -142 2 -178 -12 -13
-11 -21 7 -55 17 -32 20 -52 16 -108 -4 -60 -8 -73 -31 -93 -48 -41 -133 -27
-161 26 -21 42 -19 124 5 171 l20 40 -20 37 c-25 48 -25 93 0 143 14 28 27 40
47 43 48 7 97 -4 115 -26z m-237 -212 l0 -230 -34 -3 c-20 -2 -37 2 -42 10 -5
7 -9 81 -9 165 0 146 -1 151 -20 146 -32 -8 -27 56 8 107 24 35 31 40 62 37
l35 -2 0 -230z"/>
</g>
</svg>
