<?xml version="1.0" standalone="no"?>
<!DOCTYPE svg PUBLIC "-//W3C//DTD SVG 20010904//EN"
 "http://www.w3.org/TR/2001/REC-SVG-20010904/DTD/svg10.dtd">
<svg version="1.0" xmlns="http://www.w3.org/2000/svg"
 width="969.000000pt" height="1200.000000pt" viewBox="0 0 969.000000 1200.000000"
 preserveAspectRatio="xMidYMid meet">
<metadata>
Created by potrace 1.16, written by Peter Selinger 2001-2019
</metadata>
<g transform="translate(0.000000,1200.000000) scale(0.100000,-0.100000)"
fill="#000000" stroke="none">
<path d="M1276 11928 c-26 -25 -36 -44 -36 -66 0 -36 -9 -62 -21 -62 -5 0 -6
15 -3 33 l6 32 -22 -22 c-15 -14 -23 -34 -24 -60 -1 -36 1 -38 29 -38 27 0 30
-4 33 -32 3 -27 0 -33 -15 -33 -43 0 -43 4 -43 -641 l0 -617 333 -6 c182 -3
1813 -9 3622 -12 2192 -4 3294 -10 3303 -16 6 -6 12 -20 12 -31 l0 -20 -1542
7 c-849 3 -2236 11 -3083 17 -847 6 -1790 9 -2095 7 l-555 -3 -7 -1345 c-4
-740 -11 -2987 -17 -4994 -9 -3427 -9 -3651 7 -3679 16 -28 16 -30 -6 -44 -43
-29 -17 -120 51 -180 l34 -30 1039 -7 c571 -4 1644 -11 2384 -16 740 -5 1895
-9 2567 -10 l1223 0 24 38 c62 93 59 45 67 1002 4 481 7 1660 8 2620 0 960 6
2605 12 3655 6 1051 12 2468 12 3150 l2 1240 -28 57 c-42 86 -59 96 -159 90
-120 -6 -124 -22 -8 -34 20 -2 27 -11 34 -40 5 -21 15 -38 23 -38 7 0 12 -3
11 -7 -1 -5 7 -24 17 -43 19 -33 20 -59 23 -423 2 -377 -1 -427 -28 -427 -6 0
-11 143 -12 368 l-3 367 -112 3 c-121 3 -144 12 -124 51 6 11 11 30 11 43 0
13 2 41 5 63 9 64 2 68 -147 77 -73 5 -144 8 -158 7 -111 -4 -1808 3 -1890 7
-58 4 -118 7 -135 6 -16 0 -219 -1 -450 -1 -431 -1 -483 0 -955 18 -439 17
-635 21 -1530 31 -465 5 -1026 13 -1247 16 l-401 7 -36 -35z m3474 -179 c359
6 1088 6 1094 0 3 -3 2 -16 -2 -30 -6 -19 -14 -25 -47 -27 -42 -3 -143 -4
-197 -1 -18 1 -121 1 -228 1 -471 -3 -1397 5 -1408 12 -7 4 -12 13 -12 20 0
22 206 35 281 17 21 -5 84 -3 155 4 65 7 128 10 139 6 11 -3 112 -4 225 -2z
m3121 6 c4 -3 -1 -21 -12 -40 -11 -19 -17 -40 -13 -47 4 -7 -3 -2 -16 11 l-23
23 -18 -23 c-16 -22 -20 -23 -86 -13 -39 5 -94 5 -128 1 -33 -5 -136 -5 -230
-1 -93 4 -208 7 -255 6 -50 -1 -94 2 -107 9 -19 10 -26 9 -40 -4 -16 -14 -39
-14 -203 -6 -259 13 -248 13 -325 12 -38 -1 -106 0 -150 2 -44 1 -130 4 -192
5 -107 3 -111 4 -116 26 -2 13 0 27 6 33 10 10 1892 15 1908 6z m324 -7 c3 -3
-4 -26 -16 -52 -17 -40 -24 -47 -42 -42 -12 3 -32 6 -43 6 -15 0 -24 8 -28 24
-6 24 -31 40 -47 30 -5 -3 -9 -19 -9 -35 0 -20 -4 -29 -12 -26 -7 2 -12 12
-11 22 1 10 -3 29 -8 42 -5 14 -7 29 -4 34 6 9 210 7 220 -3z m-6377 -24 c3
-20 -2 -21 -201 -28 -112 -3 -212 -4 -221 0 -27 10 -18 33 17 38 17 3 43 7 57
10 14 2 97 3 185 2 154 -1 160 -2 163 -22z m556 16 c99 1 468 2 819 3 l637 2
0 -22 c0 -12 -6 -23 -12 -26 -7 -2 -290 -2 -628 0 -338 3 -761 5 -940 6 -281
2 -325 4 -325 17 0 12 20 16 95 21 52 3 112 4 134 2 21 -2 120 -3 220 -3z
m-521 -280 c144 -45 230 -98 264 -164 21 -41 32 -151 22 -217 -7 -44 -15 -60
-43 -85 -20 -17 -33 -34 -29 -37 3 -4 25 -7 47 -7 49 0 128 -20 174 -44 62
-32 66 -93 8 -131 -40 -26 -317 -145 -337 -145 -16 0 -19 8 -19 49 0 27 6 53
13 58 6 5 53 27 102 47 106 45 138 63 130 76 -11 18 -53 10 -136 -25 -45 -20
-89 -33 -96 -31 -19 8 -17 91 3 110 8 9 22 16 29 16 8 0 26 5 42 11 l28 11
-42 19 -43 18 0 150 c0 155 -4 181 -25 181 -7 0 -16 -7 -19 -16 -3 -9 -6 -166
-6 -349 0 -194 -4 -336 -9 -340 -9 -5 -102 26 -130 44 -12 8 -14 75 -12 407 1
219 4 401 7 406 7 10 2 11 77 -12z m1356 -203 c88 -43 86 -234 -4 -275 -17 -8
-95 -12 -229 -12 -246 0 -233 7 -238 -132 -1 -53 -5 -98 -8 -101 -3 -3 -19 -8
-36 -11 -23 -5 -36 -2 -49 10 -25 25 -18 204 9 250 36 60 52 64 285 64 198 0
211 1 221 19 17 33 12 89 -10 111 -19 19 -33 20 -260 20 l-240 0 -12 25 c-8
19 -8 28 3 41 13 16 38 16 278 10 175 -4 273 -11 290 -19z m775 -9 c8 -13 8
-23 0 -35 -9 -14 -27 -16 -125 -14 -63 1 -126 -2 -141 -8 -41 -15 -42 -21 -47
-328 -1 -58 -4 -65 -39 -103 l-39 -40 -166 0 c-154 0 -167 1 -177 19 -13 25
-4 48 22 57 11 3 59 5 107 4 128 -4 158 -2 175 16 13 13 16 43 16 175 0 181
12 228 64 260 28 17 48 19 185 17 134 -3 155 -5 165 -20z m578 -23 c5 -16 8
-100 7 -185 -1 -85 -1 -163 0 -172 1 -12 12 -18 37 -20 72 -6 72 -70 1 -76
-30 -3 -38 -8 -43 -28 -5 -21 -12 -24 -50 -24 -37 0 -46 4 -53 23 l-9 24 -249
7 c-136 4 -252 11 -257 17 -26 25 17 66 279 264 223 169 275 204 299 202 24
-2 31 -8 38 -32z m-2817 -290 l0 -50 -80 -40 c-44 -22 -80 -44 -80 -50 0 -17
52 -17 84 -1 16 9 41 16 56 16 22 0 25 -4 25 -39 0 -55 -19 -66 -104 -65 -188
3 -285 108 -163 176 53 30 233 106 247 105 11 -2 15 -15 15 -52z m-273 -886
c-3 -41 0 -58 12 -69 15 -12 15 -14 0 -31 -11 -12 -15 -29 -11 -51 3 -18 7
-42 9 -53 3 -18 -3 -20 -57 -23 l-60 -3 0 146 0 146 55 -3 55 -3 -3 -56z m143
36 c54 -53 18 -125 -62 -125 -24 0 -43 2 -43 5 0 4 7 20 16 37 15 28 15 34 1
64 -19 38 -15 44 30 44 23 0 42 -8 58 -25z m358 16 c4 -1 5 -22 2 -48 -5 -36
-2 -53 9 -68 16 -20 16 -20 36 4 23 27 25 53 8 81 -17 27 4 41 47 33 60 -11
81 -57 53 -118 -9 -21 -8 -36 5 -79 25 -79 24 -86 -22 -86 -45 0 -71 26 -71
71 0 15 -9 37 -20 50 -20 24 -20 24 -36 4 -15 -20 -15 -53 1 -102 7 -22 5 -23
-60 -23 l-67 0 6 28 c13 50 16 174 6 210 -5 19 -7 38 -5 42 4 6 58 6 108 1z
m568 -21 c-15 -55 -13 -81 10 -99 l24 -19 -24 -26 c-23 -25 -25 -54 -6 -98 6
-16 0 -18 -65 -18 -65 0 -71 2 -64 18 5 9 9 72 9 140 l0 123 60 -3 c48 -2 59
-6 56 -18z m471 -40 c15 -30 28 -61 28 -69 0 -28 -43 -132 -54 -128 -6 2 -18
28 -27 58 -10 32 -23 55 -32 57 -10 2 -19 18 -22 40 -3 20 -8 52 -11 70 l-5
33 47 -3 c46 -3 48 -4 76 -58z m173 -85 l0 -145 -64 0 c-61 0 -63 1 -56 23 14
42 18 158 6 170 -14 14 -14 38 -1 71 9 23 15 26 62 26 l53 0 0 -145z m409 -3
l1 -142 -64 0 c-56 0 -62 2 -55 18 12 28 17 186 6 225 -6 19 -7 38 -4 42 3 3
30 5 60 3 l54 -3 2 -143z m416 119 c-5 -11 -10 -63 -10 -116 0 -89 2 -98 25
-120 l24 -25 -54 0 c-74 0 -86 19 -95 148 -4 53 -10 105 -14 115 -7 15 -1 17
63 17 68 0 71 -1 61 -19z m499 -17 c6 -20 18 -45 28 -56 17 -18 16 -22 -7 -90
-14 -39 -29 -70 -35 -70 -5 0 -17 24 -26 54 -10 31 -23 54 -32 56 -10 2 -19
18 -22 40 -8 50 -11 64 -20 85 -6 15 -1 17 48 17 56 0 56 0 66 -36z m185 14
c-8 -24 -11 -207 -3 -243 4 -18 -1 -20 -56 -20 -54 0 -60 2 -58 20 15 120 15
145 0 168 -13 20 -14 32 -6 61 l10 36 61 0 c58 0 60 -1 52 -22z m784 -10 c4
-35 -8 -35 -36 -3 -36 41 -66 29 -78 -32 -5 -24 -1 -36 15 -52 24 -24 28 -51
7 -51 -31 0 -35 -61 -6 -90 27 -27 13 -32 -71 -28 -52 2 -63 6 -59 18 11 34
11 230 0 250 -11 20 -10 21 107 18 l118 -3 3 -27z m488 -1 c21 -25 24 -38 24
-108 0 -83 -15 -131 -45 -143 -9 -3 -64 -6 -122 -6 -105 0 -105 0 -97 23 11
29 11 216 1 245 l-9 24 112 -4 c108 -3 113 -4 136 -31z m378 11 c-13 -38 -17
-219 -5 -231 27 -27 11 -37 -60 -37 -64 0 -70 2 -63 18 5 9 9 67 9 127 0 61
-4 118 -9 128 -7 15 -1 17 64 17 71 0 72 -1 64 -22z m436 -14 c-13 -33 -13
-211 0 -219 6 -3 10 -13 10 -21 0 -11 -16 -14 -70 -14 -64 0 -86 9 -60 25 6 4
10 58 10 131 l0 124 60 0 60 0 -10 -26z m444 -1 c-7 -28 -9 -186 -3 -233 4
-24 2 -25 -54 -26 -62 -2 -81 12 -57 41 13 16 10 196 -4 228 -7 15 -1 17 59
17 l67 0 -8 -27z m802 21 c14 -4 31 -28 50 -67 16 -34 42 -76 57 -94 23 -26
28 -40 25 -75 -3 -42 -4 -43 -38 -43 -33 0 -36 3 -72 75 -20 41 -37 80 -38 87
0 7 -9 17 -20 23 -24 13 -53 67 -46 86 5 14 44 18 82 8z m-475 -120 c-2 -76 1
-120 8 -127 35 -35 -16 -36 -58 -2 -60 51 -65 147 -9 211 17 19 38 34 47 34
14 0 16 -13 12 -116z m113 95 c35 -28 56 -70 56 -114 0 -44 -21 -86 -56 -114
-40 -31 -85 -26 -53 6 7 7 10 51 8 127 -4 125 -2 132 45 95z m-5740 -665 c26
-8 129 -62 228 -120 98 -57 202 -116 229 -129 50 -26 63 -44 32 -46 -30 -2
-57 2 -68 11 -9 7 -117 14 -195 11 -43 -1 -264 40 -464 85 -82 19 -157 34
-167 34 -9 0 -20 7 -23 16 -7 17 -8 148 -2 155 2 2 89 3 193 1 134 -2 202 -7
237 -18z m2613 -1 c4 -11 -5 -26 -28 -45 -19 -15 -56 -48 -84 -72 -27 -24 -73
-63 -102 -85 -60 -47 -78 -72 -61 -89 12 -12 -10 -66 -41 -105 -24 -29 -48
-146 -50 -240 -1 -90 15 -294 25 -321 6 -15 -85 -116 -105 -116 -6 0 -23 -18
-37 -40 l-26 -39 12 -100 c7 -54 9 -108 6 -118 -6 -19 55 -208 88 -271 29 -56
83 -102 120 -102 45 0 55 -15 58 -91 2 -55 -2 -69 -22 -97 -29 -39 -54 -47
-123 -37 -87 11 -147 6 -178 -16 -16 -11 -33 -18 -37 -15 -5 3 -12 54 -15 113
-4 59 -12 164 -17 233 -6 69 -9 195 -9 280 1 91 -2 164 -8 175 -6 11 -13 88
-16 170 -3 83 -10 249 -16 370 -26 511 -31 656 -27 664 3 5 159 9 346 9 303 1
342 -1 347 -15z m828 7 c241 0 314 -3 317 -12 3 -7 1 -42 -4 -78 -4 -36 -12
-108 -16 -160 -4 -52 -11 -100 -14 -105 -4 -6 -12 -87 -18 -180 -7 -94 -15
-188 -19 -210 -4 -22 -3 -51 2 -65 6 -16 2 -134 -12 -335 -35 -512 -42 -589
-52 -596 -6 -3 -41 -4 -79 -1 -37 2 -84 2 -104 -2 -29 -6 -36 -11 -36 -31 0
-29 -16 -41 -35 -25 -22 18 -18 35 10 48 37 17 80 92 110 191 15 47 31 99 36
116 13 41 23 197 15 229 -10 42 -36 33 -36 -13 0 -22 -5 -52 -11 -68 -6 -15
-13 -46 -15 -68 -4 -60 -28 -167 -44 -195 -7 -14 -16 -32 -20 -40 -4 -8 -15
-16 -24 -18 -21 -4 -22 40 -1 98 8 23 13 46 10 50 -4 7 17 110 44 215 5 22 19
47 31 57 31 25 26 57 -9 64 -17 4 -31 14 -34 25 -3 10 -12 21 -21 24 -54 17
-53 15 -24 38 22 18 25 25 16 40 -13 25 -4 71 23 108 18 26 21 48 26 209 5
155 3 183 -11 204 -9 14 -16 46 -16 71 0 60 -21 56 -33 -6 -5 -24 -11 -46 -14
-49 -8 -8 -23 24 -23 50 0 14 -11 49 -25 79 -19 39 -22 57 -15 67 9 10 -1 22
-42 54 -29 23 -57 50 -62 59 -5 8 -39 44 -74 79 -55 53 -62 65 -52 78 7 8 20
12 27 9 8 -3 156 -5 328 -5z m-2225 -41 c0 -40 0 -40 -30 -34 -28 6 -32 4 -46
-32 -9 -21 -29 -49 -46 -62 -17 -13 -38 -37 -48 -54 l-18 -29 39 -41 c22 -22
38 -45 36 -51 -4 -12 -53 -16 -209 -17 -115 0 -168 15 -168 49 0 10 44 54 102
102 129 107 188 163 188 178 0 16 58 28 148 31 l52 1 0 -41z m4901 21 c13 -20
2 -583 -13 -672 -9 -57 -14 -68 -31 -68 -11 0 -34 -9 -51 -19 -17 -10 -80 -31
-141 -46 -60 -15 -150 -43 -198 -62 -68 -26 -92 -31 -102 -23 -8 6 -11 18 -8
26 7 18 -16 74 -31 75 -6 1 -25 3 -41 5 -25 3 -33 -2 -43 -24 -37 -77 -150
-116 -210 -72 -27 20 -29 26 -21 48 6 15 8 36 5 47 -3 11 1 32 8 46 7 14 16
42 20 61 3 20 17 46 30 59 32 33 39 86 13 104 -15 10 -17 20 -12 44 3 17 2 38
-4 48 -10 17 -11 16 -17 -4 -9 -31 -18 -29 -51 12 -43 54 -71 40 -53 -27 6
-18 6 -54 2 -78 l-8 -45 -42 1 c-23 0 -45 3 -48 6 -3 3 -7 32 -8 64 -2 33 -7
68 -11 78 -7 15 1 27 33 58 90 84 91 124 1 53 -59 -47 -154 -180 -170 -240 -6
-20 -17 -39 -24 -41 -8 -3 -34 10 -58 30 -24 20 -51 36 -59 36 -9 0 -31 14
-48 30 -18 17 -39 30 -46 28 -18 -4 -170 -152 -178 -173 -7 -19 -26 -17 -83 6
-24 10 -36 10 -44 2 -16 -16 24 -88 80 -144 89 -90 97 -105 70 -140 -26 -33
-24 -50 16 -136 19 -42 35 -80 35 -84 0 -5 -23 -20 -52 -35 -28 -14 -75 -48
-103 -75 -55 -52 -65 -51 -65 8 0 15 -5 23 -12 21 -7 -3 -13 -11 -13 -19 0 -8
-10 -15 -21 -17 -21 -3 -22 0 -17 75 5 90 19 127 51 131 14 2 22 10 22 24 0
17 -4 19 -26 14 -24 -6 -25 -5 -18 29 12 65 9 95 -11 95 -16 0 -15 3 -45 -155
-29 -150 -50 -236 -66 -261 -13 -20 -90 -64 -112 -64 -5 0 -12 -7 -16 -15 -3
-8 -16 -15 -28 -15 -13 0 -27 -4 -33 -8 -23 -17 -55 -73 -55 -98 0 -24 -2 -25
-27 -18 -16 4 -43 8 -62 8 -24 1 -36 7 -41 20 -10 29 -3 251 14 489 31 423 36
494 46 627 5 74 12 189 16 255 3 66 8 124 11 128 3 5 498 7 1099 5 960 -3
1096 -5 1105 -18z m-4355 -45 c1 -28 5 -96 9 -151 l8 -102 -28 -18 c-22 -15
-30 -15 -47 -5 -16 10 -22 10 -31 -2 -7 -8 -21 -18 -33 -21 -31 -9 -49 19 -51
83 -1 31 -5 67 -8 81 -11 43 10 78 49 85 27 6 38 14 47 38 7 18 13 37 13 42 1
11 34 24 56 21 11 -1 15 -15 16 -51z m930 -238 c-16 -12 -16 -14 4 -40 12 -15
28 -27 37 -27 10 0 13 -6 9 -16 -3 -9 -6 -31 -6 -50 0 -35 0 -35 -42 -32 -43
3 -43 3 -53 -38 -5 -23 -16 -48 -23 -56 -8 -11 -10 -29 -6 -56 5 -32 2 -47
-15 -70 -11 -17 -21 -35 -21 -41 0 -6 -10 -16 -23 -22 -18 -8 -26 -24 -35 -68
-18 -86 -39 -99 -90 -56 -18 15 -32 39 -36 60 -4 20 -13 35 -21 35 -30 0 -40
42 -38 165 1 108 0 118 -13 100 -9 -11 -18 -32 -21 -48 -8 -40 -23 -43 -23 -4
0 37 36 121 49 113 4 -3 19 2 32 12 13 9 44 27 69 40 25 12 69 38 99 57 52 33
107 52 160 54 23 1 23 0 7 -12z m-2236 -85 c37 -6 45 -11 45 -29 0 -12 10 -32
22 -45 27 -29 53 -89 53 -124 0 -26 -1 -26 -54 -20 -36 5 -61 3 -74 -5 -11 -7
-27 -9 -36 -6 -22 9 -22 84 1 109 15 17 15 18 -1 18 -29 0 -75 -29 -122 -76
-50 -51 -61 -82 -43 -116 7 -12 14 -45 15 -72 2 -41 -3 -58 -27 -92 -18 -27
-38 -44 -56 -47 -15 -3 -48 -11 -73 -17 -26 -6 -60 -8 -80 -4 -19 5 -39 8 -45
9 -28 2 -35 19 -35 86 0 54 -3 71 -16 76 -11 4 -14 12 -9 27 21 70 23 91 10
122 -16 39 -36 51 -103 60 -66 8 -134 -15 -151 -52 -6 -14 -11 -72 -11 -129 0
-84 -3 -107 -17 -121 -10 -9 -16 -31 -16 -51 1 -27 -4 -36 -23 -43 -30 -12
-30 -17 1 -46 25 -23 25 -25 25 -186 0 -90 5 -170 10 -178 7 -11 30 -15 91
-16 129 -3 140 5 158 106 1 2 6 -1 13 -8 21 -21 55 -13 82 19 30 35 33 70 10
124 -29 70 0 120 77 131 42 6 47 4 73 -27 19 -23 26 -38 21 -53 -31 -97 -27
-250 8 -277 11 -9 17 -21 13 -28 -12 -18 -25 -13 -40 18 -23 43 -76 50 -76 10
0 -25 -31 -25 -47 0 -14 22 -63 36 -94 26 -17 -6 -20 -13 -17 -48 l3 -42 -42
3 c-34 3 -43 0 -43 -12 0 -10 9 -16 24 -16 14 0 27 -4 31 -9 6 -11 190 -101
205 -101 5 0 10 -9 10 -19 0 -22 -49 -81 -68 -81 -15 0 -119 52 -174 86 -21
13 -44 24 -52 24 -21 0 -37 -34 -28 -58 8 -22 114 -104 177 -137 24 -13 46
-35 57 -56 10 -21 31 -43 54 -54 21 -11 68 -38 104 -59 36 -22 95 -54 132 -72
43 -22 79 -49 103 -79 26 -31 45 -45 62 -45 21 0 23 3 17 23 -10 35 -23 46
-88 79 -33 16 -67 38 -75 48 -15 18 -38 33 -124 80 -72 39 -111 105 -88 149
15 28 47 35 73 17 37 -26 48 -20 48 24 0 50 18 60 59 31 38 -28 55 -27 47 2
-3 12 -6 34 -6 50 0 22 -5 27 -23 27 -29 0 -72 43 -64 64 4 9 11 16 17 16 19
0 80 -54 80 -71 0 -12 12 -18 45 -22 25 -2 54 -12 64 -21 22 -20 57 -21 65 -1
6 16 46 21 46 6 0 -5 -4 -21 -9 -34 -13 -32 -4 -40 24 -21 20 13 25 12 64 -22
22 -20 41 -44 41 -53 0 -38 55 -68 240 -131 294 -99 305 -112 104 -121 -169
-7 -198 -20 -242 -104 -33 -64 -52 -139 -52 -206 l0 -62 -62 7 c-35 3 -135 11
-223 16 -188 11 -434 46 -565 80 -20 5 -68 12 -108 16 -40 4 -75 10 -77 15 -3
4 34 10 82 14 92 7 126 13 83 14 -14 1 -32 6 -40 11 -20 12 -4 40 34 58 20 10
26 19 21 30 -4 10 -10 36 -12 60 l-6 43 -21 -21 c-26 -24 -39 -25 -55 -6 -15
18 -5 43 21 49 11 3 18 9 16 14 -3 4 -13 27 -23 51 -21 50 -51 59 -41 12 6
-32 -11 -83 -25 -74 -5 3 -9 20 -9 37 0 18 -5 48 -11 67 -6 19 -10 49 -10 67
0 17 -9 42 -19 56 -24 31 -25 55 -3 79 15 17 14 19 -10 42 -17 16 -27 36 -27
53 0 36 -29 81 -41 62 -4 -7 -5 -171 -2 -363 5 -306 4 -353 -9 -364 -9 -7 -23
-9 -33 -6 -16 6 -17 46 -11 628 9 1091 11 1191 18 1201 7 12 817 18 888 7z
m2665 -26 c38 -9 71 -16 72 -16 2 0 3 7 3 15 0 26 17 17 68 -39 69 -76 112
-144 112 -178 0 -38 -37 -109 -60 -115 -11 -3 -21 -18 -25 -41 -12 -64 -69
-133 -96 -117 -5 4 -19 25 -30 47 l-21 41 37 35 c27 25 35 41 33 61 -4 33 -43
43 -53 13 -7 -25 -33 -36 -51 -21 -21 17 -17 25 21 48 19 11 35 25 35 31 0 6
-11 28 -25 48 -14 20 -25 42 -25 49 0 7 11 13 25 13 33 0 32 21 -3 57 -54 54
-160 91 -177 63 -3 -5 -15 -15 -26 -20 -32 -18 -22 6 14 29 35 24 57 23 172
-3z m-2207 -27 c13 -5 39 -9 59 -9 41 0 255 -39 273 -50 17 -10 28 -68 36
-191 4 -75 3 -109 -4 -109 -6 0 -27 20 -48 46 -37 45 -71 70 -81 60 -3 -3 17
-28 45 -57 69 -71 106 -141 99 -186 -7 -40 0 -63 19 -63 21 0 35 -36 41 -110
7 -82 -7 -112 -38 -84 -16 14 -18 14 -27 -3 -5 -10 -13 -37 -17 -60 -9 -57
-28 -81 -52 -67 -14 9 -19 26 -21 85 -1 41 -5 85 -8 99 -5 24 -6 24 -29 -14
-24 -40 -57 -65 -86 -66 -9 0 -29 -16 -43 -35 -33 -43 -78 -49 -97 -12 -19 35
-59 80 -82 92 -13 6 -27 30 -37 60 l-15 50 -3 -42 c-3 -35 -9 -48 -38 -70 -42
-31 -49 -25 -60 47 -4 25 -8 48 -11 52 -6 11 -54 -16 -82 -46 -24 -26 -51 -35
-51 -16 0 17 81 85 108 90 26 5 27 9 41 113 14 104 14 110 -7 170 -17 47 -21
74 -16 113 6 46 10 52 38 62 61 22 177 9 242 -26 116 -64 126 -65 104 -12 -9
22 -19 30 -37 30 -27 0 -76 26 -195 103 -100 63 -102 80 -10 71 37 -4 77 -11
90 -15z m513 -116 c34 -7 40 -41 12 -69 -20 -19 -53 -89 -53 -110 0 -25 -30
-15 -41 13 -5 15 -8 58 -5 97 3 39 5 75 6 80 0 4 12 5 26 2 15 -4 39 -10 55
-13z m-911 -82 c0 -5 -4 -11 -9 -13 -5 -1 -25 -29 -45 -61 -50 -84 -63 -170
-47 -301 18 -152 66 -326 79 -288 7 21 42 14 42 -8 0 -13 -7 -20 -20 -20 -23
0 -28 -37 -9 -72 9 -17 8 -19 -7 -16 -33 6 -61 64 -83 175 -12 59 -26 124 -31
144 -17 62 -12 285 8 363 18 70 23 75 77 94 40 13 45 14 45 3z m4559 -27 c29
-15 63 -37 76 -50 13 -13 28 -24 33 -24 14 0 25 -51 14 -62 -6 -6 -14 3 -21
25 -10 29 -18 36 -47 41 -74 14 -72 -15 5 -84 33 -30 58 -57 55 -62 -3 -4 -18
-8 -34 -8 -23 0 -33 7 -45 30 -9 17 -20 30 -25 30 -11 0 -40 -29 -40 -40 0 -4
-8 -6 -18 -3 -10 2 -26 -5 -36 -16 -24 -27 -33 -26 -42 2 -3 12 -12 29 -19 37
-11 12 -11 24 4 67 10 28 23 58 29 66 7 8 10 22 6 31 -8 20 12 46 35 46 10 0
41 -12 70 -26z m-3679 -154 c3 0 15 7 26 15 27 20 31 19 49 -15 17 -32 12 -72
-11 -91 -19 -16 -18 -27 4 -25 10 0 22 -11 31 -31 8 -17 22 -34 32 -36 13 -4
19 -20 24 -80 4 -41 4 -85 -1 -98 -4 -13 -6 -28 -5 -34 2 -5 5 -17 6 -25 1 -8
10 -32 19 -52 10 -23 20 -88 25 -165 11 -147 17 -170 61 -206 41 -35 56 -34
75 3 18 35 24 36 57 10 69 -54 90 -250 26 -250 -10 0 -18 -4 -18 -10 0 -5 9
-10 19 -10 23 0 36 -29 17 -36 -8 -3 -27 -4 -43 -2 -25 3 -29 8 -34 46 -7 51
-13 58 -61 65 -33 5 -39 3 -43 -16 -3 -12 -5 -38 -3 -57 3 -30 0 -35 -19 -38
-26 -4 -28 1 -11 28 10 15 9 23 -6 39 -26 29 -63 26 -102 -8 -28 -25 -41 -29
-88 -29 -61 1 -70 7 -81 56 -7 35 -19 41 -33 16 -8 -14 -19 -15 -65 -10 -65 8
-97 38 -97 88 0 23 -6 32 -33 43 -41 17 -60 38 -55 62 5 25 41 18 108 -22 30
-18 67 -35 82 -39 15 -3 29 -15 33 -25 3 -11 13 -25 21 -32 22 -18 34 4 30 54
-4 44 0 39 -52 60 -37 14 -84 41 -139 80 -17 13 -18 16 -5 32 14 17 14 17 133
-1 47 -7 47 -6 48 22 1 16 1 46 -1 68 -2 35 10 55 31 56 4 0 10 -31 13 -70 5
-51 11 -70 22 -70 11 0 13 11 9 53 -4 28 -8 158 -11 287 -3 129 -6 282 -8 340
-3 78 -1 99 7 83 5 -13 13 -23 17 -23z m3440 -111 c14 -11 64 -46 111 -79 72
-49 90 -67 115 -114 28 -54 30 -56 61 -50 25 5 34 2 39 -11 12 -30 -13 -42
-46 -23 -17 10 -32 13 -35 7 -10 -15 -18 -11 -60 29 -22 21 -63 56 -91 79 -45
38 -134 153 -134 175 0 13 13 9 40 -13z m-3005 -345 l6 -102 -33 -31 c-39 -36
-85 -58 -98 -45 -8 9 -30 163 -30 212 0 33 34 62 74 62 22 0 36 6 40 17 6 14
9 15 20 2 9 -9 16 -52 21 -115z m395 32 c6 -22 15 -54 20 -71 6 -16 14 -64 19
-105 5 -41 15 -93 22 -116 15 -48 7 -83 -15 -65 -20 16 -46 102 -46 150 0 22
-4 43 -10 46 -5 3 -10 21 -10 38 0 18 -7 52 -16 76 -17 50 -11 103 12 94 7 -3
19 -24 24 -47z m3884 -112 c3 -9 6 -60 6 -115 0 -94 -1 -100 -22 -109 -35 -14
-249 -30 -407 -30 l-141 0 -16 28 c-9 15 -25 39 -36 54 l-18 28 24 6 c14 3 34
20 44 37 16 28 30 35 118 59 131 36 231 51 390 56 39 2 53 -2 58 -14z m-2137
-273 c2 -9 14 -35 25 -58 21 -45 49 -57 66 -27 8 15 13 15 58 1 27 -8 61 -18
76 -21 24 -6 26 -9 21 -41 -6 -39 7 -46 28 -15 11 16 28 20 88 23 46 2 76 8
79 15 4 14 -38 32 -74 32 -14 0 -40 11 -57 24 -18 13 -44 26 -59 30 -35 8 -35
19 -2 35 37 17 97 -1 112 -34 9 -20 16 -24 29 -17 10 6 27 6 45 0 15 -6 35 -8
42 -5 8 3 22 -1 33 -8 10 -8 28 -15 40 -15 19 0 20 -3 10 -30 -14 -36 -6 -45
30 -33 21 7 28 16 28 36 1 36 22 58 35 37 17 -27 12 -60 -10 -60 -13 0 -20 -7
-20 -19 0 -31 19 -35 45 -11 20 19 30 21 62 15 21 -4 46 -14 56 -22 15 -14 23
-14 59 -4 36 11 43 11 54 -3 6 -9 19 -16 28 -16 12 0 16 -9 16 -35 0 -19 4
-35 8 -35 12 0 58 52 66 74 6 18 9 17 39 -12 18 -18 40 -32 49 -32 9 0 23 -11
31 -24 17 -25 106 -79 149 -89 15 -4 34 -15 44 -25 9 -9 31 -24 48 -32 17 -8
32 -22 34 -31 3 -16 -60 -24 -363 -50 -60 -5 -150 -13 -200 -17 -108 -11 -192
9 -207 47 -10 28 -43 24 -43 -4 0 -26 -44 -33 -61 -10 -10 14 -24 16 -76 11
-35 -3 -77 -7 -95 -8 -17 -2 -35 -6 -39 -10 -4 -5 -20 -8 -35 -8 -21 0 -33 -9
-49 -35 -25 -41 -36 -44 -150 -48 -47 -2 -104 -10 -128 -17 -38 -12 -45 -12
-60 4 -15 14 -17 44 -20 214 -3 226 -5 238 -32 245 -28 7 -26 50 3 71 20 14
21 16 5 26 -29 18 -22 45 15 55 39 12 116 -9 124 -34z m-3000 -56 c62 -87 77
-115 64 -128 -7 -7 -22 -2 -50 17 -27 19 -46 26 -60 21 -13 -4 -33 1 -54 13
-17 11 -46 23 -64 27 -17 3 -37 13 -43 20 -23 28 -6 49 55 72 88 32 102 28
152 -42z m1604 -96 c33 -28 59 -57 59 -64 0 -7 14 -39 30 -70 17 -32 28 -60
26 -63 -3 -2 -16 -2 -29 2 -15 3 -31 22 -46 51 -12 25 -27 45 -32 45 -5 0 -9
-18 -9 -39 0 -30 -6 -44 -22 -55 -28 -20 -82 -21 -98 -1 -18 22 -24 126 -10
169 12 36 45 76 63 76 5 0 36 -23 68 -51z m3429 10 c6 -22 10 -53 8 -67 -3
-27 -4 -27 -73 -23 -74 3 -118 20 -129 46 -22 59 12 85 111 85 l72 0 11 -41z
m-2276 -105 c14 -6 16 -65 16 -568 0 -308 -3 -571 -6 -583 -6 -23 -7 -23 -223
-23 -199 0 -219 2 -249 20 -63 39 -65 50 -57 473 l8 380 28 31 c27 31 29 31
141 36 l113 5 3 104 c1 58 8 111 14 118 11 14 180 19 212 7z m-2356 -229 c9
-3 12 -125 12 -562 0 -526 -2 -560 -19 -600 -11 -23 -28 -46 -39 -52 -13 -7
-103 -11 -245 -11 -196 0 -226 2 -231 16 -11 30 -6 180 7 197 10 14 35 17 147
19 l135 3 0 25 c0 25 -1 25 -105 30 -112 5 -148 18 -171 62 -14 25 -13 776 0
811 12 31 45 58 81 66 33 6 407 3 428 -4z m549 -13 c49 -28 55 -59 49 -256 -3
-99 -5 -188 -5 -196 1 -8 4 -130 7 -270 l7 -255 110 -7 c61 -4 118 -4 127 -2
10 3 26 0 37 -6 18 -9 21 -22 23 -123 l3 -112 112 -5 c107 -5 114 -6 140 -33
l28 -27 3 -418 c1 -229 0 -427 -3 -439 -5 -22 -10 -23 -108 -23 -56 0 -108 4
-114 8 -10 6 -13 92 -15 353 -3 336 -3 344 -23 344 -20 0 -20 -8 -25 -342 -3
-226 -9 -346 -16 -353 -7 -7 -50 -10 -115 -8 l-104 3 -5 470 -5 470 -105 6
c-109 5 -132 12 -165 49 -19 21 -20 39 -23 307 -3 242 -5 285 -18 290 -34 13
-39 -15 -44 -235 l-5 -217 -90 -3 c-49 -2 -100 0 -112 3 l-23 5 0 508 c0 393
3 511 13 521 17 18 432 12 464 -7z m593 -11 c49 -35 50 -39 50 -477 0 -313 -3
-414 -12 -427 -12 -14 -35 -15 -236 -9 l-224 7 -29 33 -29 32 0 221 0 221 34
34 34 34 100 0 c115 0 125 6 120 72 -2 34 -7 43 -22 43 -10 0 -24 -9 -30 -20
-6 -11 -14 -22 -18 -25 -10 -8 -194 -4 -207 4 -7 5 -11 44 -11 106 0 96 1 100
31 134 36 41 44 42 269 38 129 -3 159 -6 180 -21z m342 2 c18 -16 22 -16 66 0
61 22 136 22 173 0 56 -34 59 -51 58 -385 -1 -166 -4 -355 -8 -418 l-6 -115
-110 0 -110 0 -3 346 c-2 309 -4 348 -18 353 -42 16 -44 -1 -44 -344 0 -181
-3 -335 -6 -344 -5 -13 -24 -16 -103 -16 -53 0 -102 4 -109 9 -11 6 -13 98
-12 461 0 249 3 457 6 461 3 5 51 9 106 9 81 0 105 -3 120 -17z m3251 -593
c-1 -294 -1 -653 -1 -798 0 -183 -4 -272 -12 -292 -16 -38 -49 -49 -67 -24
-33 47 -66 73 -118 94 -51 21 -57 21 -79 6 -47 -30 -137 -211 -156 -311 -13
-68 -46 -169 -56 -172 -15 -5 -34 80 -34 150 0 34 -5 136 -12 227 -13 181 -9
210 27 242 13 12 36 38 51 60 18 25 34 38 49 38 12 0 28 7 35 15 7 8 20 15 30
15 13 0 20 14 29 59 13 67 8 89 -25 102 -14 5 -24 17 -24 28 0 10 -7 25 -17
32 -15 13 -16 10 -9 -31 13 -80 12 -84 -17 -98 -16 -8 -31 -11 -34 -8 -4 3 -8
83 -10 177 -2 121 -8 181 -18 206 -8 20 -15 50 -15 67 0 17 -7 41 -15 53 -8
11 -21 47 -30 78 -8 31 -21 70 -30 87 -8 17 -15 35 -15 40 0 5 -11 26 -25 46
-14 20 -30 53 -35 73 -6 20 -20 41 -32 47 -22 11 -61 41 -142 105 -27 23 -53
31 -128 42 -51 8 -113 15 -137 15 -68 0 -221 -48 -221 -70 0 -5 -15 -16 -33
-24 -33 -13 -58 -43 -71 -83 -10 -33 8 -29 64 11 96 69 128 78 178 49 26 -15
34 -15 78 -3 46 14 47 15 20 20 -44 7 -33 25 17 28 53 4 177 -29 191 -50 11
-18 -12 -43 -71 -78 -19 -12 -33 -28 -33 -39 0 -11 -4 -22 -9 -25 -8 -5 -93
33 -99 44 -17 33 -21 33 -51 4 -23 -21 -30 -35 -26 -50 3 -13 -1 -27 -10 -34
-21 -17 -19 -37 5 -45 11 -3 20 -10 20 -15 0 -5 3 -15 6 -24 5 -12 0 -16 -19
-16 -43 0 -57 -10 -57 -41 0 -38 -82 -129 -116 -129 -12 0 -26 -4 -29 -10 -3
-5 -26 -10 -51 -10 -100 0 -152 -54 -122 -128 20 -49 38 -106 38 -120 0 -7
-11 -22 -25 -33 l-24 -22 31 -29 c34 -31 46 -26 49 22 1 14 3 32 4 40 1 8 3
21 4 28 2 20 21 3 21 -19 0 -26 22 -24 48 4 26 28 56 164 47 217 -8 49 10 63
38 29 16 -20 18 -34 14 -86 l-6 -62 37 -11 c20 -5 48 -11 61 -12 14 -2 26 -9
29 -15 2 -9 -10 -13 -43 -13 -47 0 -48 -1 -109 -70 -7 -8 -21 -20 -32 -27 -19
-11 -18 -12 3 -33 l21 -23 37 23 c20 12 37 21 38 19 1 -2 13 -19 25 -37 27
-38 22 -65 -10 -60 -14 2 -24 12 -28 27 -3 14 -12 27 -19 29 -11 4 -13 -6 -7
-47 6 -49 5 -53 -26 -81 -18 -17 -35 -30 -39 -30 -11 0 -17 -37 -8 -51 6 -10
16 -4 41 24 31 35 36 37 99 38 36 1 74 -3 85 -9 10 -5 36 -10 57 -9 68 2 79
-51 17 -83 -59 -30 -71 -27 -68 17 3 36 2 37 -37 44 -33 6 -45 3 -72 -18 -42
-31 -43 -63 -3 -123 41 -61 42 -129 4 -159 -15 -12 -32 -21 -39 -21 -19 0 -85
69 -85 89 0 10 -7 32 -16 50 -9 18 -17 62 -18 104 -2 59 -7 79 -26 105 -27 37
-51 29 -33 -10 17 -34 45 -148 47 -188 2 -40 33 -137 47 -145 19 -12 9 -36
-13 -33 -18 2 -25 12 -32 46 -6 28 -18 49 -33 59 -13 9 -30 32 -38 51 -13 29
-17 32 -30 22 -17 -14 -20 -46 -5 -55 16 -10 12 -35 -12 -84 -18 -35 -23 -64
-24 -121 0 -91 -8 -118 -36 -122 -24 -3 -44 -49 -33 -76 6 -15 9 -14 30 11 28
32 35 34 35 8 0 -16 -64 -71 -83 -71 -9 0 -9 4 -11 360 -1 162 1 305 6 318 4
12 19 27 33 34 34 15 32 28 -4 28 -37 0 -41 7 -48 75 -5 43 -11 58 -30 71 -18
11 -23 22 -19 37 4 16 -3 13 -29 -16 l-35 -38 -73 7 c-82 8 -94 14 -105 58
l-8 31 -204 3 c-168 2 -207 0 -226 -13 -19 -12 -63 -15 -241 -15 -221 0 -228
-1 -291 -41 -20 -13 -27 -11 -74 15 l-52 29 -195 1 -196 1 -47 -27 -46 -28
-52 27 c-34 17 -73 28 -112 31 -53 4 -59 6 -56 26 l3 21 497 3 c273 1 595 -2
715 -7 157 -6 221 -5 229 3 9 8 13 122 17 383 3 204 8 376 11 381 3 5 59 15
123 21 65 7 156 16 203 21 47 5 114 11 150 14 92 8 656 63 830 81 80 9 183 17
230 19 47 3 92 7 100 10 16 6 109 16 370 41 85 9 162 17 170 19 8 2 31 3 50 3
l35 -2 -2 -535z m-6328 280 c167 -14 329 -41 347 -57 15 -13 27 -14 75 -5 75
14 197 3 201 -18 3 -15 -75 -125 -138 -194 -51 -56 -268 -233 -375 -306 -110
-75 -299 -215 -314 -233 -7 -9 -17 -17 -22 -17 -10 0 -12 809 -2 835 5 15 15
16 72 10 36 -4 107 -11 156 -15z m814 -180 c71 -20 126 -103 133 -200 5 -59
-9 -381 -17 -417 -6 -24 -56 -53 -170 -96 -127 -49 -155 -100 -91 -169 36 -39
70 -53 111 -46 21 5 25 1 31 -28 6 -35 2 -93 -13 -160 -13 -57 -66 -146 -129
-217 -30 -33 -54 -64 -54 -69 0 -5 -19 -40 -43 -76 -24 -37 -72 -118 -108
-180 -35 -63 -77 -130 -94 -149 -29 -34 -32 -35 -110 -36 -82 -2 -93 2 -175
50 -89 51 -146 93 -206 150 -94 90 -97 95 -94 225 2 110 16 232 19 163 1 -16
4 -41 8 -53 5 -21 8 -18 23 25 16 46 21 51 90 83 31 14 34 54 9 106 -33 68
-43 239 -18 331 11 40 13 42 61 48 43 6 54 4 77 -14 66 -53 191 -91 248 -76
15 4 39 9 51 10 13 2 32 11 42 20 24 22 36 14 44 -30 12 -64 53 -35 77 56 7
25 9 58 5 75 -8 34 -169 195 -240 240 -50 31 -55 41 -28 51 24 9 90 60 132
103 126 126 261 251 291 269 37 23 85 27 138 11z m4667 -387 c7 -37 -12 -90
-32 -86 -5 0 -18 3 -29 5 -15 2 -24 -6 -34 -29 -21 -47 -46 -43 -69 10 -17 40
-15 57 8 57 11 0 28 8 38 18 22 22 83 60 99 61 7 1 15 -16 19 -36z m-3586
-300 c3 -45 7 -84 10 -86 3 -3 64 -6 135 -8 72 -2 136 -7 143 -12 16 -13 17
-198 0 -215 -8 -8 -55 -12 -144 -12 -111 0 -133 -3 -138 -16 -3 -9 -6 -93 -6
-188 0 -181 8 -217 44 -203 17 7 17 11 21 207 1 58 3 113 3 123 2 15 14 17
112 17 107 0 110 -1 116 -24 3 -13 4 -130 2 -259 -3 -233 -3 -236 -27 -261
-37 -39 -76 -45 -263 -39 -169 6 -172 6 -202 34 l-31 27 -5 286 c-3 170 -9
289 -15 295 -5 5 -23 11 -40 13 l-30 3 -3 90 c-4 122 0 135 42 135 40 0 46 14
46 106 0 33 3 64 7 68 4 3 54 5 112 4 l106 -3 5 -82z m2398 -53 c5 -54 20 -60
164 -60 l129 0 -3 -112 -3 -113 -140 -5 -140 -5 0 -200 c0 -200 0 -200 23
-203 12 -2 23 -2 24 0 1 2 4 80 7 173 l6 170 110 0 110 0 3 -249 c3 -342 8
-337 -264 -335 -170 1 -208 10 -241 59 -22 32 -23 39 -23 307 l0 273 -25 10
c-25 9 -25 11 -25 119 0 108 0 109 25 115 20 5 25 13 25 39 0 53 12 58 130 55
l105 -3 3 -35z m1456 -11 c15 -34 17 -53 11 -103 -10 -76 -7 -237 5 -291 12
-52 13 -408 1 -401 -5 3 -11 18 -14 33 -3 16 -15 64 -28 108 -22 77 -22 85
-11 225 16 186 15 230 0 230 -26 0 -70 -72 -85 -135 -15 -65 -43 -109 -43 -67
0 11 8 33 17 50 20 35 12 68 -15 56 -9 -4 -29 -8 -44 -9 -16 -1 -36 -8 -45
-16 -66 -53 -125 -80 -136 -62 -3 5 9 30 26 55 21 29 38 70 47 112 19 92 38
88 49 -12 3 -31 11 -57 17 -59 14 -5 135 177 159 237 9 25 21 55 26 68 14 36
43 27 63 -19z m-2434 3 c24 -11 39 -28 47 -52 17 -50 18 -480 1 -503 -11 -14
-36 -17 -148 -19 l-135 -3 -3 -45 c-1 -25 2 -51 7 -59 12 -19 39 -7 51 24 9
25 12 25 113 25 67 0 107 -4 115 -12 15 -15 16 -139 1 -193 -13 -47 -40 -72
-83 -80 -17 -4 -109 -5 -203 -3 -166 3 -172 4 -197 27 -46 43 -49 77 -43 470
7 472 -11 441 267 441 147 0 181 -3 210 -18z m638 6 c13 -13 17 -142 6 -197
l-6 -31 -138 0 c-144 0 -158 -4 -138 -43 8 -16 23 -18 138 -16 71 0 133 -2
139 -6 12 -7 16 -181 5 -209 -5 -13 -27 -16 -138 -16 -89 0 -136 -4 -144 -12
-9 -9 -12 -68 -12 -205 0 -147 -3 -193 -12 -194 -36 -2 -214 3 -217 7 -3 3 -4
197 -2 432 3 469 1 460 64 487 43 19 437 21 455 3z m-2659 -105 c7 -14 12 -15
24 -5 10 9 40 12 84 10 l68 -3 3 -134 c3 -143 10 -166 48 -157 42 11 45 -8 42
-255 l-3 -234 -75 -3 c-95 -4 -136 4 -162 30 -14 14 -23 18 -26 10 -5 -17 -27
-15 -42 4 -8 8 -45 34 -83 56 -38 23 -71 49 -74 57 -23 70 -43 86 -43 35 0
-29 -1 -29 -51 -4 -41 21 -43 24 -53 73 -4 15 -13 27 -22 27 -14 0 -15 17 -10
138 8 182 15 232 38 265 21 29 48 36 48 12 0 -26 14 -16 42 30 25 41 31 45 68
45 28 0 43 -5 47 -16 3 -9 -9 -51 -27 -94 -17 -44 -30 -84 -28 -90 4 -13 88
142 88 163 0 20 47 57 71 57 10 0 22 -8 28 -17z m-440 -318 c1 -24 -7 -52 -19
-70 -11 -16 -20 -44 -20 -62 0 -40 -14 -78 -47 -125 -44 -65 -59 -40 -22 35
11 23 24 68 29 99 5 32 16 72 24 89 9 18 16 38 16 45 0 7 5 25 11 41 10 26 12
27 19 8 5 -11 9 -38 9 -60z m4178 -75 c3 -11 9 -20 13 -20 4 0 13 -13 20 -29
13 -32 0 -71 -23 -71 -7 0 -24 -11 -39 -25 -15 -14 -39 -25 -55 -25 -16 0 -39
-11 -56 -27 -17 -16 -27 -23 -24 -16 9 15 -3 44 -15 37 -5 -3 -7 -17 -4 -30 5
-17 2 -24 -9 -24 -11 0 -15 10 -15 35 0 28 4 35 20 35 13 0 20 7 20 18 0 28 9
32 38 16 25 -13 27 -12 30 9 4 28 22 78 35 95 17 21 39 -6 32 -40 -5 -21 -3
-28 9 -28 12 0 16 10 16 35 0 19 -4 35 -10 35 -5 0 -10 9 -10 20 0 11 5 20 11
20 6 0 13 -9 16 -20z m152 -60 c61 -70 96 -83 186 -71 33 5 66 6 73 4 14 -6
14 -7 19 -98 1 -38 4 -85 5 -104 4 -47 -14 -49 -56 -4 l-36 38 0 -57 c0 -31 5
-69 10 -84 26 -67 -33 -44 -120 49 -43 45 -60 56 -60 40 0 -5 19 -28 41 -52
38 -42 111 -147 139 -201 7 -14 35 -58 63 -99 48 -73 49 -76 43 -131 -5 -45
-3 -60 9 -70 23 -19 19 -36 -20 -87 -24 -32 -37 -60 -41 -97 -6 -39 -14 -57
-38 -79 -63 -57 -71 -66 -91 -104 -11 -21 -41 -65 -67 -97 -26 -33 -61 -89
-78 -125 -17 -36 -38 -79 -47 -96 -55 -101 -56 -105 -49 -202 3 -51 9 -99 12
-106 8 -23 92 -79 99 -67 4 6 11 8 16 5 5 -4 21 7 35 24 28 34 58 40 68 15 12
-33 5 -60 -22 -84 -30 -26 -74 -31 -297 -34 -75 -1 -93 13 -45 37 14 7 35 32
48 57 20 41 22 58 21 195 -1 133 2 157 22 210 12 33 24 83 26 110 8 96 -69
248 -177 349 l-53 50 37 73 c21 40 51 84 68 98 26 22 39 25 108 25 55 0 83 4
93 15 12 12 14 46 11 197 -3 100 -8 186 -12 190 -4 4 -106 9 -227 10 -204 3
-220 4 -223 21 -4 22 34 67 57 67 8 0 27 12 42 26 24 23 29 24 48 12 19 -11
24 -11 35 5 7 9 17 17 21 17 4 0 23 14 42 30 18 17 42 30 52 30 11 0 31 13 44
30 17 19 31 28 41 24 13 -5 16 1 16 27 0 24 8 40 28 56 25 21 26 24 10 37 -23
17 -23 36 1 36 10 0 41 -27 70 -60z m-1236 -224 l2 -120 -67 -3 c-105 -6 -108
-3 -108 126 0 59 3 111 7 115 4 4 42 5 86 4 l78 -3 2 -119z m-1453 -239 c0
-53 11 -57 152 -57 151 0 148 3 148 -120 0 -124 3 -121 -152 -119 -100 1 -133
-2 -139 -12 -5 -8 -9 -96 -9 -195 0 -149 3 -184 15 -194 12 -10 18 -10 30 0
12 10 15 42 15 170 0 126 3 160 15 170 20 16 204 6 217 -12 12 -17 0 -495 -13
-519 -22 -42 -58 -49 -255 -49 l-186 0 -34 34 c-39 39 -37 17 -34 353 1 117
-2 222 -5 233 -4 12 -18 25 -31 30 -23 9 -24 13 -24 115 0 103 1 106 25 115
15 6 27 20 31 37 3 15 7 34 10 41 2 9 34 12 114 12 l110 0 0 -33z m-1008 3
c20 -6 48 -24 62 -41 l26 -31 0 -423 c0 -364 -2 -424 -15 -435 -12 -10 -63
-11 -235 -4 l-220 9 -27 28 -28 27 0 231 0 231 33 29 c31 28 36 29 130 29 53
0 102 4 109 8 31 20 21 112 -12 112 -8 0 -21 -11 -27 -25 -6 -14 -14 -25 -17
-26 -60 -6 -204 0 -212 8 -8 8 -10 47 -7 112 4 109 14 131 73 157 37 16 312
19 367 4z m376 -5 c2 -2 3 -153 3 -337 -1 -183 3 -339 8 -346 4 -8 17 -12 27
-10 18 3 19 21 24 348 3 190 7 346 8 348 1 1 51 2 112 2 108 0 110 0 116 -24
3 -14 4 -209 2 -435 l-3 -411 -33 -32 -32 -33 -180 -3 c-152 -3 -185 -1 -215
14 -66 31 -65 26 -65 498 0 396 1 425 18 429 17 4 204 -3 210 -8z m2350 -92
l3 -103 -36 0 c-46 0 -101 -23 -114 -48 -6 -12 -11 -46 -11 -77 0 -42 -4 -57
-16 -62 -30 -11 -46 25 -41 94 7 89 45 137 122 153 26 5 30 10 30 40 l0 35
-450 0 -450 0 0 -30 c0 -27 4 -31 45 -40 68 -15 124 -79 194 -221 64 -129 75
-177 39 -182 -15 -2 -23 4 -28 20 -13 42 -105 221 -131 255 -32 42 -73 63
-123 63 -22 0 -42 4 -46 9 -5 9 -9 139 -6 184 1 16 30 17 509 15 l507 -3 3
-102z m847 75 c3 -18 5 -64 3 -103 l-3 -70 -53 -7 c-113 -17 -161 -62 -239
-226 -33 -69 -49 -92 -61 -90 -32 6 -24 52 27 154 74 148 150 224 224 224 33
0 51 24 43 55 l-6 25 -303 -2 -302 -3 0 -35 c0 -32 3 -35 37 -41 44 -7 102
-49 123 -89 38 -73 22 -202 -24 -208 -23 -4 -23 -3 -16 73 5 61 4 80 -9 100
-21 32 -67 55 -125 64 l-46 6 -3 89 c-2 49 -1 95 2 103 4 10 75 13 365 13
l360 0 6 -32z m-1917 9 c6 -7 13 -60 14 -118 l3 -104 74 -10 c68 -9 76 -13
107 -49 l34 -39 0 -177 c0 -158 -2 -180 -19 -201 -34 -44 -71 -128 -71 -163 0
-68 6 -66 -184 -66 -152 0 -175 2 -203 20 -51 31 -54 59 -51 470 3 356 4 370
24 397 11 15 36 33 55 40 48 17 203 17 217 0z m890 -111 c1 -2 -8 -16 -21 -32
-37 -44 -57 -100 -57 -160 0 -34 -4 -54 -11 -54 -17 0 -242 -72 -254 -81 -6
-4 -23 -9 -38 -11 -22 -2 -31 3 -42 25 -8 15 -22 39 -30 55 -8 15 -29 53 -47
85 -31 57 -103 137 -123 137 -19 0 -55 31 -49 42 5 7 108 8 338 4 182 -4 332
-9 334 -10z m-3579 -169 c11 -18 34 -45 51 -60 33 -30 36 -43 18 -82 -18 -39
-1 -47 115 -56 79 -6 122 -16 180 -39 41 -16 82 -30 89 -30 21 0 38 -21 38
-47 0 -31 -23 -39 -52 -19 -12 9 -30 16 -39 16 -9 0 -24 9 -34 20 -24 26 -32
25 -39 -5 -4 -15 -14 -25 -24 -25 -9 0 -30 -7 -46 -15 -15 -8 -40 -15 -55 -15
-33 -1 -109 -22 -139 -39 -13 -7 -26 -10 -29 -8 -9 10 22 48 45 53 12 4 22 10
22 15 0 14 -52 10 -83 -6 -15 -8 -34 -12 -43 -8 -9 3 -37 -14 -72 -44 -31 -27
-74 -59 -94 -72 -44 -26 -80 -69 -72 -83 4 -6 20 -7 36 -4 17 3 54 3 84 0 48
-6 54 -9 54 -30 0 -13 -5 -35 -12 -49 -9 -21 -8 -32 5 -61 34 -71 18 -89 -102
-114 -52 -11 -105 -20 -119 -20 -14 0 -55 -7 -90 -16 -78 -20 -93 -11 -66 38
11 18 22 35 26 38 8 6 88 165 88 174 0 13 -18 5 -24 -11 -15 -39 -32 -63 -47
-68 -11 -4 -56 34 -138 116 l-122 122 3 91 3 91 60 -4 c33 -2 57 0 53 4 -11
11 -49 33 -80 46 -25 10 -28 16 -28 54 0 84 79 161 109 108 6 -10 14 -24 19
-31 13 -18 199 -64 233 -57 16 4 36 16 44 27 12 18 17 19 29 9 16 -13 17 -12
41 57 7 18 30 15 50 -8 21 -24 45 -26 45 -5 0 22 27 18 40 -5 6 -11 18 -20 26
-20 17 0 16 10 -2 83 -9 39 19 36 45 -6z m3951 -158 c191 -39 341 -113 457
-225 l53 -50 0 -86 c0 -66 -4 -90 -16 -102 -12 -13 -14 -27 -9 -66 5 -34 3
-55 -5 -65 -8 -10 -10 -30 -5 -62 l7 -47 -72 69 c-39 39 -95 84 -124 101 -61
37 -204 84 -252 84 -18 0 -45 5 -61 11 -39 15 -388 15 -498 -1 -110 -15 -233
-54 -300 -93 -27 -17 -83 -62 -123 -101 l-73 -71 6 35 c3 19 5 44 5 55 -1 11
-1 50 -1 88 1 39 -3 67 -8 67 -22 0 -43 62 -36 107 13 89 45 127 190 231 77
55 299 125 465 146 71 9 307 -6 400 -25z m1910 -142 c0 -12 -15 -43 -34 -70
-18 -26 -39 -62 -46 -80 -7 -17 -23 -43 -35 -57 -22 -26 -80 -120 -109 -178
-20 -38 -16 -47 21 -55 65 -13 82 -57 22 -57 -24 0 -29 -4 -29 -25 0 -14 -7
-28 -15 -31 -27 -11 -17 -34 14 -34 17 0 31 -6 35 -16 9 -24 -5 -95 -26 -129
-23 -38 -23 -55 0 -53 41 3 52 -2 52 -27 0 -16 -13 -35 -41 -57 -23 -18 -57
-57 -76 -86 -20 -29 -49 -60 -66 -68 -30 -16 -230 -48 -250 -41 -7 2 -20 0
-29 -4 -21 -11 -148 -36 -243 -49 -115 -15 -256 -37 -320 -50 -33 -6 -75 -10
-94 -8 l-34 3 -3 59 c-4 63 -9 75 -24 60 -7 -7 -7 -28 -1 -59 5 -27 7 -54 4
-61 -5 -12 -71 -29 -80 -20 -11 11 7 36 27 36 18 0 24 8 18 28 -2 4 -14 7 -28
7 -20 0 -26 6 -30 30 -5 28 -9 30 -50 33 -38 2 -50 -2 -78 -28 -19 -17 -46
-37 -62 -45 -44 -23 -44 -32 0 -55 22 -11 40 -24 40 -29 0 -12 -26 -21 -62
-21 -29 0 -168 -21 -258 -40 -111 -22 -110 -22 -110 -6 0 9 11 44 24 78 14 35
47 122 74 193 l49 130 47 -3 c52 -3 184 -35 215 -52 11 -5 34 -10 51 -10 17 0
47 -7 68 -16 39 -17 105 -20 206 -9 77 8 195 35 202 46 3 5 22 9 43 9 21 0 51
4 67 10 16 5 56 14 89 19 173 26 180 29 253 96 66 62 78 79 122 179 35 79 99
177 164 247 70 76 122 140 140 172 30 56 100 155 129 183 39 38 57 42 57 11z
m-6480 -238 c30 -34 78 -87 107 -118 58 -62 72 -111 33 -111 -12 0 -29 8 -38
18 -46 45 -161 180 -172 200 -12 23 -7 72 8 72 4 0 32 -28 62 -61z m946 -30
c43 -25 105 -56 137 -69 98 -41 67 -66 -83 -69 -44 0 -81 -6 -88 -13 -13 -13
-97 -12 -120 1 -20 11 11 41 43 41 35 0 40 18 8 26 -15 4 -34 11 -40 17 -7 5
-23 7 -35 4 -11 -3 -29 -2 -38 3 -23 12 -142 -10 -156 -29 -15 -19 -34 -5 -34
25 0 17 8 27 24 34 13 5 27 19 31 30 5 16 10 19 18 11 16 -16 48 -13 69 6 23
20 80 33 139 29 32 -2 69 -16 125 -47z m-921 -124 c64 -76 80 -101 80 -127 0
-29 -4 -34 -37 -45 -21 -7 -61 -14 -90 -15 l-53 -3 -3 120 c-3 119 2 165 16
164 4 0 43 -42 87 -94z m4411 61 c9 -23 35 -28 50 -9 12 17 14 17 30 1 17 -17
17 -20 -1 -70 -33 -95 -46 -121 -55 -112 -13 14 -70 164 -70 185 0 23 38 27
46 5z m-462 -177 c80 -186 148 -348 212 -504 77 -186 77 -187 128 -183 l41 3
28 75 c16 41 33 84 37 95 5 11 32 83 60 160 29 77 71 192 95 255 24 63 52 140
63 170 23 63 44 82 66 60 14 -13 6 -39 -63 -220 -43 -113 -112 -299 -155 -415
-42 -115 -81 -220 -86 -233 -9 -21 -15 -23 -91 -20 l-81 3 -50 120 c-79 191
-158 377 -173 410 -43 96 -135 326 -135 338 0 18 20 27 38 17 7 -3 37 -62 66
-131z m-1567 87 c52 -43 64 -45 275 -47 l205 -2 49 27 50 27 45 -25 c42 -25
50 -26 215 -26 148 0 173 -2 185 -17 11 -12 13 -50 11 -167 -3 -144 -3 -153
20 -186 13 -19 40 -43 61 -53 35 -18 40 -18 84 -3 84 29 137 85 157 169 9 37
33 34 76 -8 20 -20 52 -44 70 -53 27 -14 38 -31 62 -92 16 -41 33 -84 37 -95
5 -11 39 -96 75 -189 49 -127 63 -172 53 -178 -6 -4 -42 -8 -78 -8 -52 0 -71
4 -89 20 -27 23 -26 23 -51 10 -10 -6 -19 -21 -19 -33 0 -20 -9 -26 -57 -40
-118 -34 -348 -75 -359 -64 -11 11 17 47 37 47 28 0 76 27 88 48 19 35 -52
136 -102 146 -12 3 -62 12 -112 21 -49 10 -132 26 -182 36 -125 26 -220 25
-248 -1 -15 -14 -61 -26 -170 -45 -83 -15 -167 -28 -189 -29 l-38 -3 6 38 c5
31 3 40 -13 49 -11 5 -27 10 -37 10 -9 0 -32 11 -50 25 -18 14 -42 25 -53 25
-18 0 -20 -6 -19 -52 1 -78 -23 -150 -55 -163 -15 -6 -40 -25 -57 -42 l-30
-30 38 -7 c63 -10 109 -7 122 9 8 9 30 15 58 15 37 0 51 -6 84 -35 21 -20 43
-33 49 -29 6 3 27 -5 48 -19 24 -16 46 -23 62 -20 16 3 30 -1 38 -11 8 -9 24
-16 38 -16 32 0 116 -20 127 -31 6 -6 6 -13 0 -19 -24 -24 -918 -160 -936
-142 -5 5 -13 182 -18 408 -5 220 -14 484 -20 588 -9 142 -9 191 0 200 7 7 58
11 148 11 145 0 182 8 235 52 35 29 39 29 74 -1z m-613 -148 c3 -51 11 -239
16 -418 6 -179 15 -439 21 -578 5 -139 9 -341 9 -450 -1 -108 2 -267 5 -353 4
-94 2 -166 -4 -181 -7 -18 -6 -36 1 -56 9 -23 8 -38 -5 -70 -12 -31 -14 -48
-7 -67 14 -37 12 -98 -3 -119 -11 -15 -18 -16 -33 -8 -15 8 -24 6 -41 -8 -24
-19 -12 -21 -160 25 -7 3 -13 15 -13 29 0 14 -5 37 -10 52 -9 23 -7 33 10 55
29 40 27 87 -4 99 -14 5 -30 18 -36 30 -6 11 -14 20 -19 20 -13 0 -20 -102 -9
-123 14 -26 -9 -76 -39 -88 -37 -14 -50 -11 -56 11 -3 12 -14 20 -26 20 -22 0
-29 24 -10 36 15 9 1 55 -22 72 -20 14 -27 76 -9 87 17 11 11 80 -11 130 -16
36 -20 59 -15 94 12 98 24 143 43 169 42 57 54 93 54 160 0 42 7 83 19 112 31
74 43 157 43 295 0 88 -5 152 -16 198 -10 38 -17 109 -17 160 0 91 -9 144 -34
202 -8 17 -16 37 -19 45 -3 8 -6 2 -6 -13 -1 -16 4 -38 10 -49 8 -14 8 -23 0
-31 -8 -8 -11 -7 -11 5 0 9 -8 30 -17 47 -15 26 -16 34 -5 51 8 14 10 37 6 73
-11 90 -55 138 -93 103 -24 -21 -28 -20 -35 9 -4 14 -13 25 -20 25 -8 0 -28
-11 -44 -25 -17 -14 -35 -25 -40 -25 -6 0 -17 -9 -25 -20 -12 -17 -12 -27 -3
-54 6 -19 18 -41 25 -50 12 -14 9 -24 -21 -74 -20 -31 -50 -88 -67 -127 -18
-38 -47 -92 -66 -120 -35 -54 -56 -132 -96 -355 -24 -132 -28 -241 -15 -351
10 -76 1 -89 -38 -58 -21 16 -26 29 -26 64 0 24 -6 48 -14 54 -12 10 -16 5
-26 -24 -6 -19 -15 -35 -19 -35 -16 0 -61 84 -61 113 0 53 37 158 70 198 16
21 30 45 30 54 0 8 13 50 29 93 16 42 35 95 40 117 10 36 22 62 89 190 11 22
25 73 31 114 8 57 17 84 42 118 40 56 30 73 -34 56 -23 -6 -54 -9 -68 -6 -21
4 -33 -3 -65 -39 -21 -25 -52 -53 -68 -64 -66 -42 -122 -119 -160 -217 -11
-27 -25 -42 -50 -52 -45 -19 -90 -75 -115 -144 -17 -46 -20 -78 -19 -181 1
-105 -3 -143 -26 -235 -15 -60 -32 -118 -37 -128 -8 -14 -6 -24 7 -38 15 -17
15 -19 1 -19 -9 0 -18 4 -22 9 -3 6 -26 13 -50 17 -25 3 -45 10 -45 15 0 5
-11 9 -25 9 -15 0 -36 13 -55 33 -17 19 -49 39 -73 47 -93 27 -128 43 -137 61
-6 10 -17 19 -26 19 -8 0 -19 12 -24 26 -12 30 -14 1003 -2 1020 4 5 99 25
212 43 113 18 327 52 475 76 149 24 333 53 410 65 77 11 163 25 190 30 28 5
102 16 165 26 63 9 174 27 245 40 72 12 137 23 147 23 13 1 17 -14 22 -91z
m4686 -788 l0 -179 -32 -17 c-52 -27 -138 -53 -153 -47 -9 3 -17 15 -19 27
-73 359 -72 354 -51 362 9 4 27 2 40 -4 19 -9 33 -8 62 5 40 17 93 30 131 32
l22 1 0 -180z m-305 90 c0 -32 -3 -35 -33 -38 -18 -2 -36 -10 -39 -18 -9 -24
3 -27 36 -10 34 18 47 8 37 -27 -4 -15 -28 -33 -74 -54 -38 -18 -75 -33 -83
-33 -8 0 -19 -4 -24 -9 -14 -13 -104 -61 -116 -61 -5 0 -9 18 -9 40 0 22 -4
40 -10 40 -5 0 -10 -4 -10 -10 0 -5 -7 -10 -15 -10 -18 0 -35 39 -35 82 0 26
3 30 21 25 25 -7 36 17 18 39 -19 23 7 36 59 29 24 -4 49 -2 55 4 21 17 150
50 187 48 33 -2 35 -4 35 -37z m-536 -71 c6 -18 11 -42 11 -55 0 -24 25 -36
64 -31 14 1 22 -9 32 -43 8 -25 14 -47 14 -49 0 -2 -12 0 -26 3 -19 5 -30 1
-44 -16 -15 -18 -21 -21 -31 -10 -7 6 -22 12 -32 12 -15 0 -18 5 -14 20 3 12
1 35 -4 53 -21 69 -27 122 -17 134 18 22 36 14 47 -18z m-154 -46 c3 -27 10
-56 16 -65 5 -10 9 -27 9 -38 0 -18 4 -20 35 -14 30 5 35 4 35 -13 0 -24 -65
-57 -101 -51 -21 3 -25 12 -41 93 -24 130 -24 135 11 135 28 0 30 -3 36 -47z
m-143 -63 c9 -47 20 -95 24 -108 8 -28 -21 -65 -47 -57 -9 3 -20 1 -24 -5 -3
-5 -17 -10 -31 -10 -14 0 -27 -7 -30 -15 -3 -8 -18 -14 -32 -13 -15 0 -47 -4
-72 -10 -25 -6 -57 -14 -72 -18 -21 -5 -28 -3 -28 9 0 9 -13 22 -30 31 -30 14
-30 14 -30 -15 0 -24 4 -29 24 -29 23 0 24 -2 15 -27 -13 -36 -129 -125 -145
-112 -12 9 -16 28 -33 134 -7 46 -8 48 -15 23 -6 -20 -15 -28 -31 -28 -21 0
-22 -4 -21 -57 1 -56 0 -58 -27 -61 -26 -3 -27 -5 -21 -45 4 -23 11 -50 16
-59 12 -24 -1 -45 -56 -93 -25 -22 -46 -44 -46 -48 0 -5 19 -6 43 -3 97 15
149 18 143 8 -4 -6 -28 -14 -54 -18 -26 -3 -51 -10 -57 -14 -5 -4 -26 -13 -45
-18 -19 -6 -60 -20 -90 -32 -66 -27 -420 -139 -437 -140 -22 0 -14 18 11 24
33 8 41 43 11 50 -31 8 -55 -1 -85 -33 -31 -32 -86 -71 -100 -71 -5 0 -10 -4
-10 -10 0 -13 -106 -80 -127 -80 -9 0 -25 -7 -35 -17 -17 -15 -22 -14 -74 12
l-55 28 -37 -35 c-20 -20 -48 -41 -60 -48 -13 -6 -21 -14 -18 -18 4 -3 57 -6
119 -6 l112 -1 3 -47 c4 -61 -10 -86 -51 -91 -31 -4 -31 -4 6 -5 25 -2 37 -7
37 -17 0 -22 -168 -22 -176 0 -4 9 -15 13 -28 11 -11 -3 -38 -8 -58 -11 -25
-4 -39 -12 -43 -25 -16 -51 -46 16 -40 90 2 25 6 243 10 485 5 317 10 443 18
451 7 6 50 16 97 22 47 6 130 18 185 26 55 8 138 18 185 22 47 4 94 13 105 20
11 7 59 15 110 17 50 1 99 8 111 14 11 7 72 19 135 29 63 9 137 20 164 25 28
5 88 13 135 18 47 5 98 14 114 20 16 7 35 10 42 7 7 -3 37 -1 66 4 56 10 80
14 180 25 35 4 68 11 73 15 11 9 81 18 130 16 29 -1 30 -2 47 -86z m842 21 c3
-5 13 -42 22 -82 30 -136 32 -126 -19 -150 l-45 -22 -94 48 c-51 26 -102 56
-113 66 -19 19 -19 19 5 37 36 26 112 70 140 82 14 5 32 14 40 19 19 13 57 14
64 2z m-749 -210 c20 -8 20 -8 -1 -15 -12 -4 -44 -31 -72 -61 -34 -38 -57 -55
-74 -55 -13 0 -32 -6 -43 -13 -17 -13 -16 -14 14 -20 37 -8 48 -29 32 -64 -8
-18 -17 -24 -31 -20 -11 3 -21 -1 -25 -11 -5 -13 -23 -14 -123 -10 -105 5
-120 4 -141 -13 -29 -24 -79 -25 -88 -2 -8 20 89 111 127 119 14 3 41 9 60 14
19 5 48 12 63 15 30 6 28 25 -3 25 -53 0 0 50 69 65 17 4 31 11 31 16 0 5 19
9 43 10 23 0 58 6 77 13 41 16 58 17 85 7z m-2138 -378 c-8 -559 -27 -1146
-38 -1175 -8 -20 -7 -32 4 -50 11 -18 13 -43 8 -108 l-6 -85 -45 -7 c-25 -3
-70 -7 -101 -7 -52 -1 -62 3 -118 44 -66 49 -91 56 -91 26 0 -12 11 -23 30
-29 16 -6 44 -24 61 -40 18 -17 49 -36 71 -43 21 -7 41 -16 44 -20 6 -11 -239
2 -253 13 -7 6 -10 20 -7 32 3 14 -2 31 -15 47 -17 22 -22 23 -50 12 -26 -9
-31 -9 -31 3 0 8 6 14 13 14 8 0 19 11 25 25 6 13 23 27 36 31 14 3 28 15 31
25 7 20 53 49 79 49 20 0 74 37 114 78 44 45 85 129 86 178 1 34 -6 48 -44 92
-41 47 -48 51 -78 46 -18 -3 -52 -18 -75 -34 -25 -17 -58 -30 -82 -32 -45 -3
-43 -13 -29 115 4 39 3 67 -2 67 -5 0 -24 13 -41 29 -31 28 -31 29 -18 67 11
31 18 39 38 39 43 0 78 51 47 70 -15 9 -4 168 14 203 9 17 16 37 16 45 0 8 7
20 15 27 8 7 15 28 15 46 l0 34 -43 -4 c-42 -4 -44 -2 -76 44 -18 26 -46 60
-61 75 -32 30 -32 46 0 38 11 -3 27 0 35 7 13 11 20 9 44 -14 15 -14 30 -24
33 -20 4 3 16 0 28 -6 20 -11 21 -9 18 22 -2 25 -8 34 -24 36 -15 2 -29 19
-44 50 -13 26 -27 55 -32 64 -11 24 -10 28 6 22 8 -3 17 -1 21 5 12 21 33 11
40 -19 4 -16 11 -32 16 -35 15 -10 10 64 -8 122 -22 70 -15 76 107 93 52 7
131 18 175 25 44 7 95 13 114 14 l33 1 -5 -347z m-782 120 c6 -44 15 -86 21
-94 17 -21 2 -48 -55 -102 -28 -27 -51 -57 -51 -68 0 -11 27 -56 60 -101 64
-88 69 -101 45 -125 -12 -11 -14 -27 -9 -63 6 -44 4 -50 -28 -86 -20 -22 -40
-55 -46 -74 -17 -53 -34 -211 -27 -247 5 -30 4 -33 -19 -33 -14 0 -28 4 -31
10 -3 5 -25 15 -48 21 -27 7 -58 27 -87 56 -28 29 -56 47 -74 49 -16 2 -32 6
-34 9 -3 3 -16 -5 -29 -17 -24 -23 -36 -58 -48 -143 -13 -93 -26 -12 -32 204
l-6 203 29 -6 c31 -6 54 6 71 39 22 43 -5 57 -56 28 -16 -10 -32 -15 -34 -13
-3 3 -7 27 -8 54 -5 57 11 71 28 26 23 -60 71 -17 50 45 -5 16 -13 73 -17 125
-6 77 -4 97 7 107 11 9 12 16 4 31 -13 25 -31 32 -53 20 -14 -7 -18 -4 -18 12
0 12 9 24 24 29 27 11 86 82 86 104 0 19 83 45 159 49 50 3 55 1 60 -20 8 -30
25 -29 29 2 6 43 59 71 107 55 17 -5 22 -20 30 -86z m-2495 -83 c6 -11 17 -20
25 -20 9 0 12 -6 9 -15 -12 -31 72 -80 112 -65 38 15 38 14 83 -45 38 -50 53
-61 134 -94 15 -6 30 -18 33 -26 7 -18 -10 -64 -43 -112 -28 -41 -25 -70 6
-54 20 11 78 5 97 -10 18 -15 147 -11 172 5 11 6 12 40 6 166 -7 168 -4 182
39 162 12 -5 34 -14 50 -21 18 -7 27 -18 27 -33 1 -21 2 -22 14 -5 15 20 45
22 69 5 15 -12 14 -19 -13 -78 -51 -111 -60 -118 -71 -55 -4 22 -19 49 -37 68
l-31 31 4 -107 c5 -130 7 -139 45 -155 53 -24 64 -64 51 -189 -7 -59 -13 -153
-14 -208 -2 -55 -4 -11 -5 98 -2 198 -11 253 -42 272 -7 4 -164 7 -349 7 -305
-2 -337 -3 -353 -19 -15 -16 -18 -58 -24 -430 -7 -440 -5 -468 40 -478 11 -2
163 -6 337 -9 347 -4 357 -3 375 52 12 38 27 32 17 -7 -13 -57 -17 -58 -241
-66 -114 -3 -220 -11 -235 -17 -23 -9 -34 -8 -57 5 -25 15 -32 15 -70 2 -23
-8 -62 -15 -86 -15 -37 0 -46 5 -68 33 -53 70 -57 94 -50 299 6 168 5 188 -8
183 -9 -4 -18 -16 -21 -27 -3 -11 -10 -17 -15 -14 -11 7 -17 951 -6 979 3 9
12 13 19 11 8 -3 22 -1 32 5 25 15 31 14 43 -9z m1306 -147 c-2 -10 -8 -46
-11 -81 -4 -34 -20 -97 -36 -138 -16 -41 -37 -115 -48 -165 -19 -95 -41 -132
-75 -127 -18 3 -21 9 -18 42 2 22 14 58 28 81 16 28 24 57 24 88 0 25 5 58 11
74 16 41 27 91 22 97 -19 19 -108 -65 -119 -112 -8 -31 -35 -82 -45 -82 -3 0
-4 24 -1 52 4 37 13 63 32 88 16 19 31 45 35 58 3 12 13 22 21 22 28 0 95 41
131 80 38 42 58 51 49 23z m3819 -107 c20 -31 9 -78 -43 -185 -59 -122 -130
-158 -284 -147 -68 5 -94 3 -116 -8 -20 -10 -59 -15 -125 -15 -90 1 -97 2 -97
20 0 37 39 96 91 140 49 41 57 44 104 42 44 -1 57 3 82 25 53 49 61 53 167 96
63 26 115 41 130 39 13 -3 27 0 30 6 12 19 45 12 61 -13z m1171 -156 c18 -12
42 -40 55 -66 21 -45 22 -55 23 -452 l1 -407 -23 -40 c-13 -22 -38 -50 -56
-63 -32 -22 -36 -22 -396 -22 -361 0 -364 0 -397 23 -18 12 -42 41 -54 64 -19
40 -20 56 -17 460 3 405 4 419 24 451 46 73 37 72 443 72 348 0 365 -1 397
-20z m-5757 -304 c36 -36 41 -120 11 -174 l-22 -39 21 -41 c34 -67 23 -173
-22 -210 -8 -7 -34 -13 -57 -14 -66 -1 -93 33 -98 120 -3 56 0 77 18 111 21
42 21 44 3 63 -14 15 -18 36 -18 90 0 67 2 71 34 100 28 25 39 29 69 24 20 -3
47 -16 61 -30z m-235 8 c3 -9 6 -114 6 -234 0 -185 -2 -221 -16 -234 -18 -18
-32 -20 -54 -6 -12 8 -15 38 -15 166 0 151 -1 157 -22 171 -32 21 -29 61 8
111 23 32 37 42 59 42 16 0 30 -7 34 -16z m6155 -364 c1 -366 -5 -438 -31
-412 -9 9 -16 8 -29 -4 -19 -17 -50 -16 -56 2 -2 6 7 24 19 40 29 36 28 25 36
379 6 260 9 304 25 333 10 17 21 32 26 32 5 0 9 -166 10 -370z m-1253 96 c86
-73 99 -89 109 -130 7 -25 10 -46 8 -46 -8 0 -232 151 -243 165 -13 15 4 95
20 95 5 0 52 -38 106 -84z m-913 -213 c30 -24 36 -35 39 -73 l3 -45 40 3 c55
4 95 21 95 41 0 9 -9 31 -21 50 -23 39 -19 49 16 33 29 -14 210 -58 315 -78
41 -7 117 -25 169 -39 78 -20 101 -31 138 -66 31 -29 49 -39 61 -33 28 12 113
22 184 23 78 1 98 -12 98 -67 0 -27 8 -44 31 -68 42 -43 31 -58 -34 -50 -44 5
-56 12 -92 51 -41 44 -43 45 -91 39 -27 -3 -61 -10 -76 -16 -29 -11 -48 -4
-48 16 0 7 -12 18 -26 25 -35 16 -51 1 -60 -54 -4 -33 -12 -46 -28 -51 -35
-12 -417 -7 -430 6 -14 14 9 30 46 30 19 0 33 9 45 28 9 15 30 42 46 60 40 49
33 73 -25 88 -60 15 -71 8 -163 -116 -57 -76 -73 -91 -107 -100 -30 -9 -43 -8
-54 1 -11 9 -23 9 -53 -1 -23 -7 -56 -10 -82 -6 -115 16 -177 18 -242 5 -57
-10 -78 -10 -120 0 -55 14 -93 15 -246 5 -51 -3 -104 -3 -117 0 -28 7 -31 29
-8 48 59 48 58 47 31 76 -98 104 -117 135 -117 192 0 61 47 69 76 12 13 -26
65 -62 164 -113 41 -22 85 -51 97 -64 27 -30 63 -34 63 -6 0 11 -9 23 -21 26
-34 11 -19 39 26 48 22 5 63 15 90 23 63 18 98 19 155 6 25 -7 53 -12 63 -12
26 0 20 19 -9 30 l-26 10 57 55 c66 64 93 69 148 28z m-1988 -97 c0 -22 -36
-35 -145 -55 -78 -15 -98 -30 -83 -63 8 -16 29 -29 74 -42 98 -30 177 -86 121
-86 -42 0 -136 23 -187 45 l-55 25 0 68 0 69 93 26 c150 43 182 45 182 13z
m4575 -896 c0 -53 -3 -64 -26 -85 -35 -32 -90 -47 -162 -43 l-57 3 -5 56 c-3
31 -11 63 -19 72 -7 9 -11 23 -8 32 5 11 32 15 134 18 70 1 131 4 136 5 4 1 7
-25 7 -58z"/>
<path d="M4265 10999 c-93 -72 -171 -134 -173 -139 -2 -6 69 -10 182 -10 l186
0 0 140 c0 106 -3 140 -12 139 -7 0 -89 -59 -183 -130z"/>
<path d="M7249 9248 c-1 -2 -2 -22 -3 -45 -3 -59 -28 -85 -80 -81 -36 3 -41 0
-44 -19 -3 -17 2 -23 16 -23 23 0 64 -44 88 -96 9 -19 25 -39 35 -45 16 -8 22
-2 43 43 14 29 35 67 46 83 11 17 20 40 20 51 0 34 -28 106 -48 120 -14 11
-70 20 -73 12z"/>
<path d="M7525 9010 c-3 -5 -15 -10 -27 -10 -21 0 -47 -20 -107 -82 -24 -26
-45 -38 -63 -38 -26 0 -26 -1 23 -50 29 -29 52 -62 55 -80 9 -40 16 -43 58
-23 39 18 45 40 22 82 -15 27 -7 72 18 100 14 16 56 95 56 106 0 9 -29 5 -35
-5z"/>
<path d="M2424 7611 c-24 -19 -48 -76 -39 -90 8 -14 45 -14 45 -1 0 6 9 10 20
10 11 0 20 -4 20 -10 0 -5 -4 -10 -10 -10 -5 0 -10 -9 -10 -20 0 -11 6 -20 14
-20 7 0 39 -11 70 -25 47 -21 56 -29 56 -50 0 -33 11 -32 70 11 41 29 48 39
39 50 -13 16 -50 9 -62 -12 -4 -8 -12 -14 -17 -14 -13 0 -13 27 0 32 5 2 14
18 19 36 8 27 7 36 -10 53 -10 10 -29 19 -42 19 -12 0 -41 9 -62 21 -70 36
-79 38 -101 20z"/>
<path d="M5375 7028 c-3 -7 -4 -112 -3 -233 3 -219 3 -220 25 -223 32 -5 34
13 31 253 -3 209 -3 210 -26 213 -12 2 -24 -3 -27 -10z"/>
<path d="M3020 7041 c-16 -32 -13 -423 4 -446 12 -16 16 -17 30 -6 14 12 16
44 16 236 0 194 -2 224 -16 229 -22 8 -22 8 -34 -13z"/>
<path d="M1997 6659 c-70 -73 -127 -137 -127 -141 0 -17 25 -6 91 38 38 25 77
57 88 72 34 49 83 142 79 154 -2 6 -61 -50 -131 -123z"/>
<path d="M2010 5678 c-16 -18 -33 -41 -36 -51 -11 -33 6 -85 41 -132 19 -25
35 -50 35 -55 0 -6 11 -15 25 -22 20 -9 34 -6 90 22 63 31 82 50 50 50 -8 0
-39 14 -68 30 -30 17 -65 30 -78 30 -35 0 -49 18 -49 61 0 29 6 42 27 57 15
11 23 24 19 30 -11 19 -23 14 -56 -20z"/>
<path d="M1800 5399 c0 -14 76 -124 118 -171 19 -21 43 -38 53 -38 25 0 24 4
-12 56 -46 68 -29 80 54 38 41 -20 60 -24 94 -19 36 5 43 3 53 -15 11 -21 12
-21 36 11 13 18 24 37 24 41 0 17 -70 38 -167 49 -54 6 -125 22 -159 35 -66
26 -94 30 -94 13z"/>
<path d="M4796 4754 c-3 -9 -6 -112 -6 -230 0 -182 2 -216 15 -220 8 -4 22 -1
30 6 12 10 15 49 15 220 0 115 -3 215 -6 224 -3 9 -14 16 -24 16 -10 0 -21 -7
-24 -16z"/>
<path d="M5665 4520 c-157 -25 -265 -53 -328 -87 -60 -33 -68 -49 -32 -63 l27
-10 -4 -94 c-2 -79 -7 -99 -25 -125 -13 -17 -23 -33 -23 -36 0 -9 39 -5 45 5
9 14 67 38 139 59 67 18 81 35 36 44 -27 6 -30 10 -30 47 0 38 12 52 25 30 14
-22 25 4 25 56 0 58 4 62 37 39 20 -14 22 -14 26 2 3 10 5 36 6 57 1 47 4 51
30 36 19 -10 21 -20 21 -114 0 -90 -2 -105 -20 -121 -28 -25 -27 -50 3 -40 12
4 59 10 105 12 61 4 82 9 82 19 0 8 -5 14 -11 14 -31 0 -52 154 -30 213 13 33
50 45 67 22 7 -9 32 -69 55 -133 23 -65 47 -120 53 -124 6 -4 25 -8 43 -8 34
0 28 -11 98 182 23 63 39 76 65 53 17 -16 20 -31 20 -112 0 -87 -2 -96 -25
-117 -31 -29 -31 -36 -3 -36 27 0 196 -58 223 -76 11 -8 23 -14 27 -14 5 0 8
34 8 76 l0 76 -30 -7 c-30 -6 -30 -6 -30 34 0 47 18 55 43 19 15 -22 16 -20
16 38 1 38 -4 65 -11 72 -22 17 -161 73 -208 83 -197 43 -362 52 -515 29z"/>
<path d="M4420 3737 c0 -52 -28 -75 -57 -46 -18 18 -81 2 -88 -22 -4 -11 -22
-28 -41 -37 -26 -12 -45 -35 -74 -88 -22 -39 -40 -83 -40 -96 0 -37 47 -138
64 -138 8 0 18 5 21 10 3 6 17 10 31 10 19 0 25 -5 22 -17 -2 -10 -12 -19 -23
-21 -23 -5 -84 -61 -85 -79 0 -19 18 -16 37 7 10 11 23 20 29 20 6 0 17 7 24
15 6 8 51 26 98 41 67 20 96 35 127 65 36 34 40 44 37 75 -4 29 -2 35 9 28 8
-4 19 -15 26 -24 6 -9 40 -25 75 -34 97 -28 168 -52 223 -76 52 -23 154 -59
168 -60 19 0 2 33 -57 115 -44 59 -82 100 -118 123 -29 20 -73 49 -98 65 -24
16 -61 32 -82 35 -45 6 -50 11 -63 77 -9 44 -14 50 -38 53 -25 3 -27 1 -21
-22 5 -20 1 -27 -25 -41 -34 -17 -33 -18 -49 44 -10 42 -32 54 -32 18z"/>
<path d="M7320 1875 c-13 -16 -79 -366 -80 -422 0 -27 5 -34 25 -39 14 -3 36
-3 50 0 25 6 27 12 51 121 8 33 14 41 36 43 53 6 68 -12 68 -83 0 -73 8 -98
44 -139 32 -35 33 -65 5 -122 -20 -39 -21 -74 -2 -74 5 0 20 11 34 24 55 51
87 54 122 9 20 -25 46 -31 48 -10 1 6 0 38 -1 69 -2 55 -1 58 41 96 52 49 49
72 -10 72 -45 0 -61 18 -61 67 0 15 -5 35 -10 43 -9 13 -13 12 -30 -9 -11 -13
-20 -31 -20 -41 0 -19 -35 -55 -43 -43 -3 4 -7 49 -8 99 -3 74 -1 96 12 110
30 34 39 62 39 117 0 99 -45 127 -206 127 -70 0 -95 -4 -104 -15z m360 -451
c4 -20 12 -30 28 -32 27 -4 28 -26 3 -58 -14 -18 -18 -34 -14 -64 7 -47 -8
-53 -51 -19 -24 19 -29 19 -39 7 -7 -9 -20 -18 -30 -21 -24 -9 -32 16 -17 54
10 23 10 33 1 42 -6 6 -11 21 -11 33 0 17 7 23 27 26 17 2 32 12 39 27 25 49
56 51 64 5z"/>
</g>
</svg>
